<svg width="147" height="28" viewBox="0 0 147 28" fill="none" xmlns="http://www.w3.org/2000/svg">
<g clip-path="url(#clip0_9_13)">
<rect width="147" height="28" fill="white"/>
<rect width="83" height="28" fill="#2F2626"/>
<path d="M16.199 18.099C15.979 18.055 15.8067 17.9633 15.682 17.824C15.5573 17.6773 15.495 17.5013 15.495 17.296C15.495 17.1567 15.528 17.01 15.594 16.856L18.223 10.531C18.311 10.311 18.4797 10.201 18.729 10.201C18.9637 10.201 19.1287 10.311 19.224 10.531L21.853 16.856C21.919 17.01 21.952 17.1567 21.952 17.296C21.952 17.494 21.8897 17.6663 21.765 17.813C21.6403 17.9597 21.468 18.055 21.248 18.099L20.302 15.8H17.145L16.199 18.099ZM19.983 14.909L18.564 11.312L18.476 11.345L18.674 11.851L17.464 14.909H19.983ZM25.96 18.099C25.3807 18.099 24.8564 17.9817 24.387 17.747C23.9177 17.5123 23.5474 17.1897 23.276 16.779C23.012 16.361 22.88 15.8953 22.88 15.382V11.059C22.88 10.7803 22.968 10.5677 23.144 10.421C23.32 10.2743 23.5767 10.201 23.914 10.201V15.382C23.914 15.9173 24.101 16.35 24.475 16.68C24.8564 17.01 25.3514 17.175 25.96 17.175C26.5687 17.175 27.06 17.01 27.434 16.68C27.808 16.35 27.995 15.9173 27.995 15.382V11.059C27.995 10.7803 28.083 10.5677 28.259 10.421C28.435 10.2743 28.6917 10.201 29.029 10.201V15.382C29.029 15.8953 28.897 16.361 28.633 16.779C28.369 17.1897 28.0024 17.5123 27.533 17.747C27.0637 17.9817 26.5394 18.099 25.96 18.099ZM32.818 11.213H30.134C30.134 10.6043 30.42 10.3 30.992 10.3H36.525C36.525 10.9087 36.239 11.213 35.667 11.213H33.852V17.241C33.852 17.5197 33.764 17.7323 33.588 17.879C33.412 18.0257 33.1554 18.099 32.818 18.099V11.213ZM37.6841 11.059C37.6841 10.7803 37.7721 10.5677 37.9481 10.421C38.1241 10.2743 38.3807 10.201 38.7181 10.201V13.666H42.6231V11.059C42.6231 10.7803 42.7111 10.5677 42.8871 10.421C43.0631 10.2743 43.3197 10.201 43.6571 10.201V17.241C43.6571 17.5197 43.5691 17.7323 43.3931 17.879C43.2171 18.0257 42.9604 18.099 42.6231 18.099V14.579H38.7181V17.241C38.7181 17.5197 38.6301 17.7323 38.4541 17.879C38.2781 18.0257 38.0214 18.099 37.6841 18.099V11.059ZM48.0859 18.099C47.4772 18.099 46.9309 17.9817 46.4469 17.747C45.9702 17.505 45.5962 17.175 45.3249 16.757C45.0535 16.3317 44.9179 15.8623 44.9179 15.349V12.929C44.9179 12.4157 45.0535 11.9537 45.3249 11.543C45.5962 11.125 45.9702 10.7987 46.4469 10.564C46.9309 10.322 47.4772 10.201 48.0859 10.201C48.7019 10.201 49.2482 10.322 49.7249 10.564C50.2089 10.7987 50.5865 11.125 50.8579 11.543C51.1292 11.9537 51.2649 12.4157 51.2649 12.929V15.349C51.2649 15.8623 51.1292 16.3317 50.8579 16.757C50.5865 17.175 50.2089 17.505 49.7249 17.747C49.2409 17.9817 48.6945 18.099 48.0859 18.099ZM48.0859 17.197C48.7679 17.197 49.2995 17.0283 49.6809 16.691C50.0622 16.3537 50.2529 15.9027 50.2529 15.338V12.951C50.2529 12.3863 50.0622 11.939 49.6809 11.609C49.2995 11.2717 48.7679 11.103 48.0859 11.103C47.4112 11.103 46.8832 11.2717 46.5019 11.609C46.1205 11.939 45.9299 12.3863 45.9299 12.951V15.338C45.9299 15.9027 46.1205 16.3537 46.5019 16.691C46.8832 17.0283 47.4112 17.197 48.0859 17.197ZM52.5298 10.784C52.5298 10.6447 52.5774 10.531 52.6728 10.443C52.7754 10.3477 52.9038 10.3 53.0578 10.3H56.0938C56.8051 10.3 57.3698 10.509 57.7878 10.927C58.2131 11.3377 58.4258 11.8877 58.4258 12.577C58.4258 13.4423 58.0481 14.0547 57.2928 14.414V14.447C57.6228 14.5863 57.8758 14.799 58.0518 15.085C58.2278 15.3637 58.3158 15.7047 58.3158 16.108V17.241C58.3158 17.5197 58.2278 17.7323 58.0518 17.879C57.8758 18.0257 57.6191 18.099 57.2818 18.099V16.174C57.2818 15.7413 57.1828 15.415 56.9848 15.195C56.7941 14.9677 56.5081 14.854 56.1268 14.854H53.5528V17.241C53.5528 17.5197 53.4648 17.7323 53.2888 17.879C53.1201 18.0257 52.8671 18.099 52.5298 18.099V10.784ZM56.0608 13.963C56.4641 13.963 56.7831 13.8383 57.0178 13.589C57.2598 13.3397 57.3808 12.9987 57.3808 12.566C57.3808 12.126 57.2671 11.7887 57.0398 11.554C56.8124 11.3193 56.4861 11.202 56.0608 11.202H53.5528V13.963H56.0608Z" fill="white"/>
<rect x="83" width="64" height="28" fill="#1D129F"/>
<path d="M87.36 17.09C86.7867 17.09 86.3233 16.9367 85.97 16.63C85.6233 16.3233 85.45 15.92 85.45 15.42C85.45 14.9133 85.6333 14.5067 86 14.2C86.3667 13.8867 86.85 13.73 87.45 13.73C88.09 13.73 88.6167 13.9567 89.03 14.41L89.07 14.37C88.9967 14.29 88.9133 14.2067 88.82 14.12V13.7C88.82 13.36 88.7133 13.0967 88.5 12.91C88.2867 12.7233 87.9833 12.63 87.59 12.63C86.89 12.63 86.39 12.9067 86.09 13.46C85.9833 13.4067 85.8933 13.3367 85.82 13.25C85.7533 13.1567 85.72 13.0633 85.72 12.97C85.72 12.79 85.81 12.62 85.99 12.46C86.17 12.2933 86.4067 12.16 86.7 12.06C87 11.96 87.3133 11.91 87.64 11.91C88.2733 11.91 88.77 12.0667 89.13 12.38C89.4967 12.6933 89.68 13.1267 89.68 13.68V16.42C89.68 16.6533 89.6133 16.8233 89.48 16.93C89.3467 17.0367 89.1367 17.09 88.85 17.09V16.62C88.99 16.4733 89.0667 16.3867 89.08 16.36L89.04 16.32C88.6067 16.8333 88.0467 17.09 87.36 17.09ZM87.51 16.4C87.9233 16.4 88.2467 16.3133 88.48 16.14C88.72 15.9667 88.84 15.7267 88.84 15.42C88.84 15.1133 88.7233 14.87 88.49 14.69C88.2567 14.51 87.9367 14.42 87.53 14.42C87.15 14.42 86.85 14.51 86.63 14.69C86.4167 14.8633 86.31 15.1067 86.31 15.42C86.31 15.7333 86.4133 15.9767 86.62 16.15C86.8333 16.3167 87.13 16.4 87.51 16.4ZM92.482 17.09C91.9954 17.09 91.632 16.9567 91.392 16.69C91.152 16.4167 91.032 16.06 91.032 15.62V10.55C91.032 10.33 91.102 10.17 91.242 10.07C91.3887 9.96333 91.6087 9.91 91.902 9.91V15.59C91.902 15.85 91.9554 16.0367 92.062 16.15C92.1687 16.2633 92.3454 16.32 92.592 16.32C92.8387 16.32 93.0654 16.26 93.272 16.14C93.3587 16.24 93.402 16.3567 93.402 16.49C93.402 16.65 93.3187 16.79 93.152 16.91C92.9854 17.03 92.762 17.09 92.482 17.09ZM96.2061 17.09C95.7994 17.09 95.4361 17.0133 95.1161 16.86C94.7961 16.7 94.5461 16.4833 94.3661 16.21C94.1861 15.93 94.0961 15.6167 94.0961 15.27V13.79C94.0961 13.4367 94.1894 13.1167 94.3761 12.83C94.5694 12.5433 94.8261 12.32 95.1461 12.16C95.4728 11.9933 95.8261 11.91 96.2061 11.91C96.5861 11.91 96.9328 11.99 97.2461 12.15C97.5661 12.31 97.8161 12.53 97.9961 12.81C98.1828 13.09 98.2761 13.4067 98.2761 13.76V14.4C98.2761 14.5067 98.2361 14.5967 98.1561 14.67C98.0761 14.7433 97.9794 14.78 97.8661 14.78H94.9461V15.23C94.9461 15.57 95.0528 15.8433 95.2661 16.05C95.4861 16.2567 95.7994 16.36 96.2061 16.36C96.6128 16.36 96.9228 16.27 97.1361 16.09C97.3494 15.91 97.4561 15.6667 97.4561 15.36C97.6561 15.3467 97.8228 15.3867 97.9561 15.48C98.0961 15.5667 98.1661 15.6967 98.1661 15.87C98.1661 16.0833 98.0728 16.2833 97.8861 16.47C97.7061 16.6567 97.4661 16.8067 97.1661 16.92C96.8661 17.0333 96.5461 17.09 96.2061 17.09ZM97.4661 14.1V13.76C97.4661 13.4267 97.3494 13.1567 97.1161 12.95C96.8894 12.7367 96.5861 12.63 96.2061 12.63C95.8261 12.63 95.5194 12.7367 95.2861 12.95C95.0594 13.1567 94.9461 13.4267 94.9461 13.76V14.1H97.4661ZM99.2613 17.09C99.1746 17.09 99.0813 17.0733 98.9813 17.04C98.8813 17.0133 98.7979 16.9667 98.7313 16.9L100.571 14.37L98.9412 12.06C98.9946 12.0133 99.0679 11.9767 99.1613 11.95C99.2613 11.9233 99.3513 11.91 99.4313 11.91C99.6846 11.91 99.8713 12 99.9913 12.18L101.031 13.73L100.841 14L100.891 14.04L102.161 12.18C102.221 12.0933 102.301 12.0267 102.401 11.98C102.508 11.9333 102.621 11.91 102.741 11.91C102.821 11.91 102.908 11.9233 103.001 11.95C103.095 11.9767 103.168 12.0133 103.221 12.06L101.581 14.37L103.411 16.9C103.351 16.9667 103.275 17.0133 103.181 17.04C103.095 17.0733 103.011 17.09 102.931 17.09C102.825 17.09 102.718 17.0667 102.611 17.02C102.505 16.98 102.428 16.9233 102.381 16.85L101.071 14.94L99.7713 16.85C99.7179 16.93 99.6446 16.99 99.5513 17.03C99.4579 17.07 99.3613 17.09 99.2613 17.09ZM105.913 17.09C105.506 17.09 105.143 17.0133 104.823 16.86C104.503 16.7 104.253 16.4833 104.073 16.21C103.893 15.93 103.803 15.6167 103.803 15.27V13.79C103.803 13.4367 103.896 13.1167 104.083 12.83C104.276 12.5433 104.533 12.32 104.853 12.16C105.18 11.9933 105.533 11.91 105.913 11.91C106.293 11.91 106.64 11.99 106.953 12.15C107.273 12.31 107.523 12.53 107.703 12.81C107.89 13.09 107.983 13.4067 107.983 13.76V14.4C107.983 14.5067 107.943 14.5967 107.863 14.67C107.783 14.7433 107.686 14.78 107.573 14.78H104.653V15.23C104.653 15.57 104.76 15.8433 104.973 16.05C105.193 16.2567 105.506 16.36 105.913 16.36C106.32 16.36 106.63 16.27 106.843 16.09C107.056 15.91 107.163 15.6667 107.163 15.36C107.363 15.3467 107.53 15.3867 107.663 15.48C107.803 15.5667 107.873 15.6967 107.873 15.87C107.873 16.0833 107.78 16.2833 107.593 16.47C107.413 16.6567 107.173 16.8067 106.873 16.92C106.573 17.0333 106.253 17.09 105.913 17.09ZM107.173 14.1V13.76C107.173 13.4267 107.056 13.1567 106.823 12.95C106.596 12.7367 106.293 12.63 105.913 12.63C105.533 12.63 105.226 12.7367 104.993 12.95C104.766 13.1567 104.653 13.4267 104.653 13.76V14.1H107.173ZM109.138 12.65C109.138 12.1567 109.414 11.91 109.968 11.91V12.55C109.881 12.6433 109.811 12.7333 109.757 12.82L109.798 12.86C110.011 12.56 110.238 12.3267 110.478 12.16C110.718 11.9933 110.994 11.91 111.308 11.91C111.914 11.91 112.331 12.2 112.558 12.78C112.938 12.2 113.444 11.91 114.078 11.91C114.551 11.91 114.914 12.07 115.168 12.39C115.428 12.7033 115.558 13.1167 115.558 13.63V16.45C115.558 16.67 115.484 16.8333 115.338 16.94C115.198 17.04 114.984 17.09 114.698 17.09V13.68C114.698 13.36 114.631 13.11 114.498 12.93C114.364 12.75 114.154 12.66 113.868 12.66C113.568 12.66 113.311 12.7633 113.098 12.97C112.884 13.17 112.778 13.44 112.778 13.78V16.45C112.778 16.67 112.708 16.8333 112.568 16.94C112.428 17.04 112.214 17.09 111.928 17.09V13.68C111.928 13.36 111.861 13.11 111.728 12.93C111.594 12.75 111.384 12.66 111.098 12.66C110.791 12.66 110.531 12.77 110.318 12.99C110.104 13.21 109.998 13.48 109.998 13.8V16.45C109.998 16.67 109.924 16.8333 109.778 16.94C109.638 17.04 109.424 17.09 109.138 17.09V12.65ZM116.862 12.62C116.862 12.4 116.929 12.2267 117.062 12.1C117.202 11.9733 117.412 11.91 117.692 11.91V12.47L117.492 12.73L117.522 12.77C117.729 12.5033 117.965 12.2933 118.232 12.14C118.499 11.9867 118.815 11.91 119.182 11.91C119.755 11.91 120.219 12.07 120.572 12.39C120.925 12.7033 121.102 13.1233 121.102 13.65V15.36C121.102 15.8867 120.919 16.3067 120.552 16.62C120.185 16.9333 119.709 17.09 119.122 17.09C118.809 17.09 118.519 17.0267 118.252 16.9C117.992 16.7667 117.762 16.5933 117.562 16.38L117.532 16.43C117.579 16.4967 117.649 16.57 117.742 16.65V18.41C117.742 18.8633 117.449 19.09 116.862 19.09V12.62ZM118.992 16.32C119.385 16.32 119.692 16.2333 119.912 16.06C120.132 15.88 120.242 15.6333 120.242 15.32V13.69C120.242 13.3633 120.132 13.1133 119.912 12.94C119.692 12.7667 119.382 12.68 118.982 12.68C118.629 12.68 118.332 12.7733 118.092 12.96C117.852 13.14 117.732 13.3667 117.732 13.64V15.37C117.732 15.6367 117.845 15.8633 118.072 16.05C118.299 16.23 118.605 16.32 118.992 16.32ZM123.849 17.09C123.363 17.09 122.999 16.9567 122.759 16.69C122.519 16.4167 122.399 16.06 122.399 15.62V10.55C122.399 10.33 122.469 10.17 122.609 10.07C122.756 9.96333 122.976 9.91 123.269 9.91V15.59C123.269 15.85 123.323 16.0367 123.429 16.15C123.536 16.2633 123.713 16.32 123.959 16.32C124.206 16.32 124.433 16.26 124.639 16.14C124.726 16.24 124.769 16.3567 124.769 16.49C124.769 16.65 124.686 16.79 124.519 16.91C124.353 17.03 124.129 17.09 123.849 17.09ZM127.463 17.09C127.057 17.09 126.687 17.0133 126.353 16.86C126.027 16.7067 125.77 16.5 125.583 16.24C125.403 15.9733 125.313 15.6767 125.313 15.35V13.71C125.313 13.3767 125.403 13.0733 125.583 12.8C125.77 12.5267 126.027 12.31 126.353 12.15C126.68 11.99 127.05 11.91 127.463 11.91C127.877 11.91 128.247 11.99 128.573 12.15C128.907 12.31 129.163 12.5267 129.343 12.8C129.53 13.0733 129.623 13.3767 129.623 13.71V15.35C129.623 15.6767 129.53 15.9733 129.343 16.24C129.157 16.5 128.9 16.7067 128.573 16.86C128.247 17.0133 127.877 17.09 127.463 17.09ZM127.463 16.34C127.863 16.34 128.18 16.2467 128.413 16.06C128.653 15.8667 128.773 15.6167 128.773 15.31V13.74C128.773 13.42 128.653 13.16 128.413 12.96C128.18 12.76 127.863 12.66 127.463 12.66C127.07 12.66 126.753 12.76 126.513 12.96C126.273 13.16 126.153 13.42 126.153 13.74V15.31C126.153 15.6167 126.27 15.8667 126.503 16.06C126.743 16.2467 127.063 16.34 127.463 16.34ZM130.614 19.08C130.2 19.08 129.984 18.84 129.964 18.36C130.164 18.3867 130.307 18.4 130.394 18.4C130.687 18.4 130.92 18.3133 131.094 18.14C131.274 17.9667 131.457 17.6667 131.644 17.24L131.844 16.79L129.874 11.98C129.92 11.96 129.98 11.9433 130.054 11.93C130.134 11.9167 130.2 11.91 130.254 11.91C130.394 11.9167 130.52 11.9567 130.634 12.03C130.747 12.0967 130.827 12.1867 130.874 12.3L132.214 15.72L132.074 16.12L132.134 16.15L133.654 12.3C133.7 12.18 133.777 12.0867 133.884 12.02C133.997 11.9467 134.124 11.91 134.264 11.91C134.324 11.91 134.39 11.9167 134.464 11.93C134.544 11.9433 134.604 11.96 134.644 11.98L132.394 17.49C132.174 18.0233 131.927 18.42 131.654 18.68C131.38 18.9467 131.034 19.08 130.614 19.08ZM137.153 17.09C136.747 17.09 136.383 17.0133 136.063 16.86C135.743 16.7 135.493 16.4833 135.313 16.21C135.133 15.93 135.043 15.6167 135.043 15.27V13.79C135.043 13.4367 135.137 13.1167 135.323 12.83C135.517 12.5433 135.773 12.32 136.093 12.16C136.42 11.9933 136.773 11.91 137.153 11.91C137.533 11.91 137.88 11.99 138.193 12.15C138.513 12.31 138.763 12.53 138.943 12.81C139.13 13.09 139.223 13.4067 139.223 13.76V14.4C139.223 14.5067 139.183 14.5967 139.103 14.67C139.023 14.7433 138.927 14.78 138.813 14.78H135.893V15.23C135.893 15.57 136 15.8433 136.213 16.05C136.433 16.2567 136.747 16.36 137.153 16.36C137.56 16.36 137.87 16.27 138.083 16.09C138.297 15.91 138.403 15.6667 138.403 15.36C138.603 15.3467 138.77 15.3867 138.903 15.48C139.043 15.5667 139.113 15.6967 139.113 15.87C139.113 16.0833 139.02 16.2833 138.833 16.47C138.653 16.6567 138.413 16.8067 138.113 16.92C137.813 17.0333 137.493 17.09 137.153 17.09ZM138.413 14.1V13.76C138.413 13.4267 138.297 13.1567 138.063 12.95C137.837 12.7367 137.533 12.63 137.153 12.63C136.773 12.63 136.467 12.7367 136.233 12.95C136.007 13.1567 135.893 13.4267 135.893 13.76V14.1H138.413ZM142.208 17.09C141.634 17.09 141.168 16.9333 140.808 16.62C140.454 16.3 140.278 15.8767 140.278 15.35V13.64C140.278 13.3 140.361 13 140.528 12.74C140.694 12.4733 140.924 12.27 141.218 12.13C141.518 11.9833 141.861 11.91 142.248 11.91C142.561 11.91 142.851 11.9767 143.118 12.11C143.384 12.2367 143.618 12.4067 143.818 12.62L143.848 12.57C143.801 12.5033 143.731 12.43 143.638 12.35V10.59C143.638 10.37 143.711 10.2033 143.858 10.09C144.004 9.97 144.224 9.91 144.518 9.91V16.38C144.518 16.6 144.451 16.7733 144.318 16.9C144.191 17.0267 143.984 17.09 143.698 17.09V16.53C143.791 16.41 143.854 16.3233 143.888 16.27L143.858 16.23C143.644 16.4967 143.408 16.7067 143.148 16.86C142.888 17.0133 142.574 17.09 142.208 17.09ZM142.398 16.32C142.751 16.32 143.048 16.23 143.288 16.05C143.528 15.8633 143.648 15.6333 143.648 15.36V13.63C143.648 13.3633 143.534 13.14 143.308 12.96C143.081 12.7733 142.774 12.68 142.388 12.68C141.994 12.68 141.688 12.77 141.468 12.95C141.254 13.1233 141.148 13.3667 141.148 13.68V15.31C141.148 15.6367 141.254 15.8867 141.468 16.06C141.688 16.2333 141.998 16.32 142.398 16.32Z" fill="white"/>
</g>
<defs>
<clipPath id="clip0_9_13">
<rect width="147" height="28" fill="white"/>
</clipPath>
</defs>
</svg>
