<svg width="137" height="28" viewBox="0 0 137 28" fill="none" xmlns="http://www.w3.org/2000/svg">
<g clip-path="url(#clip0_8_8)">
<rect width="137" height="28" fill="white"/>
<rect width="80" height="28" fill="#2F2626"/>
<path d="M12.309 18C12.1623 18 12.034 17.9487 11.924 17.846C11.8213 17.736 11.77 17.6077 11.77 17.461V11.059C11.77 10.487 12.1147 10.201 12.804 10.201V17.087H16.181C16.4377 17.087 16.6357 17.1677 16.775 17.329C16.9143 17.483 16.984 17.7067 16.984 18H12.309ZM18.3601 11.059C18.3601 10.7877 18.4481 10.5787 18.6241 10.432C18.8075 10.278 19.0641 10.201 19.3941 10.201V17.241C19.3941 17.5123 19.3025 17.725 19.1191 17.879C18.9431 18.0257 18.6901 18.099 18.3601 18.099V11.059ZM24.2277 18.099C23.6117 18.099 23.0617 17.9853 22.5777 17.758C22.0937 17.5233 21.716 17.2007 21.4447 16.79C21.1807 16.372 21.0487 15.899 21.0487 15.371V12.907C21.0487 12.379 21.1807 11.9097 21.4447 11.499C21.716 11.0883 22.09 10.7693 22.5667 10.542C23.0433 10.3147 23.5897 10.201 24.2057 10.201C24.8217 10.201 25.368 10.3 25.8447 10.498C26.3213 10.6887 26.6917 10.9563 26.9557 11.301C27.227 11.6457 27.3627 12.0417 27.3627 12.489C27.3627 12.709 27.2893 12.8813 27.1427 13.006C26.996 13.1307 26.8017 13.193 26.5597 13.193C26.5083 13.193 26.4313 13.1857 26.3287 13.171C26.3433 13.083 26.3507 12.9437 26.3507 12.753C26.3507 12.4377 26.259 12.1553 26.0757 11.906C25.8997 11.6567 25.6467 11.4623 25.3167 11.323C24.994 11.1837 24.6237 11.114 24.2057 11.114C23.795 11.114 23.4283 11.191 23.1057 11.345C22.783 11.4917 22.53 11.7043 22.3467 11.983C22.1707 12.2543 22.0827 12.5623 22.0827 12.907V15.371C22.0827 15.723 22.1707 16.0383 22.3467 16.317C22.53 16.5883 22.783 16.801 23.1057 16.955C23.4357 17.109 23.8097 17.186 24.2277 17.186C24.653 17.186 25.0307 17.1163 25.3607 16.977C25.6907 16.8377 25.9473 16.647 26.1307 16.405C26.314 16.1557 26.4057 15.8697 26.4057 15.547C26.4057 15.4297 26.3983 15.2903 26.3837 15.129C26.4863 15.1143 26.5597 15.107 26.6037 15.107C26.8457 15.107 27.04 15.1767 27.1867 15.316C27.3407 15.4553 27.4177 15.6423 27.4177 15.877C27.4177 16.3097 27.282 16.6947 27.0107 17.032C26.7393 17.3693 26.3617 17.6333 25.8777 17.824C25.401 18.0073 24.851 18.099 24.2277 18.099ZM28.6782 10.784C28.6782 10.6447 28.7295 10.531 28.8322 10.443C28.9349 10.3477 29.0595 10.3 29.2062 10.3H34.0792C34.0792 10.608 34.0169 10.8353 33.8922 10.982C33.7675 11.1287 33.5732 11.202 33.3092 11.202H29.7122V13.666H32.7922C32.7922 13.974 32.7299 14.2013 32.6052 14.348C32.4805 14.4947 32.2899 14.568 32.0332 14.568H29.7122V17.098H33.5402C33.7969 17.098 33.9875 17.1713 34.1122 17.318C34.2369 17.4647 34.2992 17.692 34.2992 18H29.2062C29.0595 18 28.9349 17.956 28.8322 17.868C28.7295 17.7727 28.6782 17.6553 28.6782 17.516V10.784ZM35.5639 11.092C35.5639 10.8133 35.6483 10.597 35.8169 10.443C35.9929 10.2817 36.2349 10.201 36.5429 10.201L40.8109 16.691L40.8879 16.625L40.5689 16.097V10.201C40.9063 10.201 41.1593 10.2743 41.3279 10.421C41.5039 10.5677 41.5919 10.7803 41.5919 11.059V17.285C41.5919 17.5197 41.5076 17.714 41.3389 17.868C41.1776 18.022 40.9686 18.099 40.7119 18.099L36.3449 11.466L36.2679 11.532L36.5869 12.06V17.241C36.5869 17.5197 36.4989 17.7323 36.3229 17.879C36.1543 18.0257 35.9013 18.099 35.5639 18.099V11.092ZM45.8872 18.099C45.2712 18.099 44.7359 18.011 44.2812 17.835C43.8339 17.659 43.4929 17.4243 43.2582 17.131C43.0235 16.8377 42.9062 16.5223 42.9062 16.185C42.9062 15.9063 42.9795 15.6937 43.1262 15.547C43.2729 15.393 43.4965 15.316 43.7972 15.316C43.7972 15.9393 43.9842 16.416 44.3582 16.746C44.7322 17.0687 45.2565 17.23 45.9312 17.23C46.5765 17.23 47.0715 17.1237 47.4162 16.911C47.7609 16.691 47.9332 16.3683 47.9332 15.943C47.9332 15.6863 47.8672 15.4773 47.7352 15.316C47.6105 15.1473 47.3942 15.0043 47.0862 14.887C46.7855 14.7623 46.3492 14.6377 45.7772 14.513C45.1025 14.3663 44.5672 14.1977 44.1712 14.007C43.7752 13.809 43.4855 13.5707 43.3022 13.292C43.1189 13.0133 43.0272 12.6687 43.0272 12.258C43.0272 11.8473 43.1409 11.488 43.3682 11.18C43.6029 10.8647 43.9329 10.6227 44.3582 10.454C44.7835 10.2853 45.2785 10.201 45.8432 10.201C46.3785 10.201 46.8552 10.278 47.2732 10.432C47.6985 10.5787 48.0285 10.7913 48.2632 11.07C48.5052 11.3413 48.6262 11.6493 48.6262 11.994C48.6262 12.2067 48.5565 12.3753 48.4172 12.5C48.2852 12.6173 48.0762 12.676 47.7902 12.676C47.7095 12.1187 47.5115 11.7117 47.1962 11.455C46.8882 11.1983 46.4372 11.07 45.8432 11.07C45.2712 11.07 44.8312 11.1727 44.5232 11.378C44.2152 11.576 44.0612 11.8583 44.0612 12.225C44.0612 12.4817 44.1162 12.6943 44.2262 12.863C44.3435 13.0243 44.5379 13.1637 44.8092 13.281C45.0879 13.3983 45.4765 13.512 45.9752 13.622C46.7232 13.7833 47.3099 13.963 47.7352 14.161C48.1679 14.359 48.4795 14.601 48.6702 14.887C48.8609 15.173 48.9562 15.525 48.9562 15.943C48.9562 16.6103 48.6775 17.1383 48.1202 17.527C47.5629 17.9083 46.8185 18.099 45.8872 18.099ZM50.2163 10.784C50.2163 10.6447 50.2676 10.531 50.3703 10.443C50.473 10.3477 50.5976 10.3 50.7443 10.3H55.6173C55.6173 10.608 55.555 10.8353 55.4303 10.982C55.3056 11.1287 55.1113 11.202 54.8473 11.202H51.2503V13.666H54.3303C54.3303 13.974 54.268 14.2013 54.1433 14.348C54.0186 14.4947 53.828 14.568 53.5713 14.568H51.2503V17.098H55.0783C55.335 17.098 55.5256 17.1713 55.6503 17.318C55.775 17.4647 55.8373 17.692 55.8373 18H50.7443C50.5976 18 50.473 17.956 50.3703 17.868C50.2676 17.7727 50.2163 17.6553 50.2163 17.516V10.784Z" fill="white"/>
<rect x="80" width="57" height="28" fill="#6CCFE4"/>
<path d="M89.861 18.099C89.2377 18.099 88.684 17.9853 88.2 17.758C87.716 17.5233 87.3383 17.2007 87.067 16.79C86.7957 16.372 86.66 15.899 86.66 15.371V12.907C86.66 12.379 86.792 11.9097 87.056 11.499C87.3273 11.0883 87.7013 10.7693 88.178 10.542C88.6547 10.3147 89.201 10.201 89.817 10.201C90.433 10.201 90.9793 10.3 91.456 10.498C91.9327 10.6887 92.303 10.9563 92.567 11.301C92.8383 11.6457 92.974 12.038 92.974 12.478C92.974 12.698 92.9007 12.8703 92.754 12.995C92.6073 13.1197 92.413 13.182 92.171 13.182C92.1197 13.182 92.0427 13.1747 91.94 13.16C91.9547 13.072 91.962 12.9327 91.962 12.742C91.962 12.4267 91.8703 12.1443 91.687 11.895C91.511 11.6457 91.258 11.4513 90.928 11.312C90.6053 11.1727 90.235 11.103 89.817 11.103C89.4063 11.103 89.0397 11.18 88.717 11.334C88.3943 11.4807 88.1413 11.6933 87.958 11.972C87.782 12.2433 87.694 12.555 87.694 12.907V15.371C87.694 15.723 87.7857 16.0383 87.969 16.317C88.1523 16.5957 88.409 16.812 88.739 16.966C89.069 17.12 89.443 17.197 89.861 17.197C90.2717 17.197 90.6383 17.1273 90.961 16.988C91.291 16.8487 91.544 16.6507 91.72 16.394C91.9033 16.1373 91.995 15.8477 91.995 15.525V14.909H90.609C90.3817 14.909 90.1983 14.832 90.059 14.678C89.9197 14.5167 89.85 14.3077 89.85 14.051H92.534C92.6807 14.051 92.798 14.095 92.886 14.183C92.9813 14.271 93.029 14.3883 93.029 14.535V15.536C93.029 16.0347 92.8933 16.4783 92.622 16.867C92.358 17.2557 91.984 17.56 91.5 17.78C91.0233 17.9927 90.477 18.099 89.861 18.099ZM94.4077 10.784C94.4077 10.6447 94.4554 10.531 94.5507 10.443C94.6534 10.3477 94.7817 10.3 94.9357 10.3H98.1477C98.6317 10.3 99.0607 10.4027 99.4347 10.608C99.8087 10.806 100.098 11.0883 100.304 11.455C100.509 11.8143 100.612 12.2287 100.612 12.698C100.612 13.182 100.509 13.6073 100.304 13.974C100.106 14.3407 99.8197 14.623 99.4457 14.821C99.0717 15.019 98.639 15.118 98.1477 15.118H95.4417V17.241C95.4417 17.5197 95.3537 17.7323 95.1777 17.879C95.0017 18.0257 94.745 18.099 94.4077 18.099V10.784ZM98.1477 14.205C98.5877 14.205 98.936 14.073 99.1927 13.809C99.4494 13.5377 99.5777 13.1673 99.5777 12.698C99.5777 12.2433 99.4457 11.884 99.1817 11.62C98.925 11.3487 98.5804 11.213 98.1477 11.213H95.4417V14.205H98.1477ZM102.413 18C102.266 18 102.138 17.9487 102.028 17.846C101.925 17.736 101.874 17.6077 101.874 17.461V11.059C101.874 10.487 102.218 10.201 102.908 10.201V17.087H106.285C106.541 17.087 106.739 17.1677 106.879 17.329C107.018 17.483 107.088 17.7067 107.088 18H102.413ZM107.969 15.228C107.969 14.9567 108.035 14.744 108.167 14.59C108.299 14.436 108.486 14.359 108.728 14.359H111.973C111.973 14.6303 111.907 14.843 111.775 14.997C111.643 15.151 111.452 15.228 111.203 15.228H107.969ZM115.868 18.099C115.31 18.099 114.812 18.011 114.372 17.835C113.932 17.659 113.587 17.417 113.338 17.109C113.088 16.7937 112.964 16.438 112.964 16.042C112.964 15.7633 113.044 15.5617 113.206 15.437C113.374 15.305 113.631 15.2427 113.976 15.25C113.961 15.4553 113.954 15.591 113.954 15.657C113.954 16.1483 114.119 16.526 114.449 16.79C114.779 17.0467 115.252 17.175 115.868 17.175C117.144 17.175 117.782 16.7387 117.782 15.866C117.782 15.4333 117.631 15.1033 117.331 14.876C117.03 14.6413 116.594 14.524 116.022 14.524H115.637C115.505 14.524 115.395 14.4837 115.307 14.403C115.226 14.315 115.186 14.205 115.186 14.073C115.186 13.9337 115.226 13.8237 115.307 13.743C115.395 13.6623 115.505 13.622 115.637 13.622H116.033C116.502 13.622 116.872 13.5083 117.144 13.281C117.422 13.0463 117.562 12.7347 117.562 12.346C117.562 11.9427 117.422 11.6383 117.144 11.433C116.872 11.2277 116.469 11.125 115.934 11.125C115.362 11.125 114.922 11.2277 114.614 11.433C114.313 11.631 114.163 11.9207 114.163 12.302C114.163 12.456 114.177 12.588 114.207 12.698C113.899 12.7127 113.649 12.654 113.459 12.522C113.268 12.39 113.173 12.2067 113.173 11.972C113.173 11.6347 113.29 11.334 113.525 11.07C113.767 10.7987 114.097 10.586 114.515 10.432C114.933 10.278 115.406 10.201 115.934 10.201C116.469 10.201 116.938 10.289 117.342 10.465C117.752 10.641 118.068 10.8903 118.288 11.213C118.508 11.5357 118.618 11.9133 118.618 12.346C118.618 13.1013 118.218 13.6733 117.419 14.062C117.91 14.26 118.266 14.502 118.486 14.788C118.713 15.074 118.827 15.4333 118.827 15.866C118.827 16.5553 118.563 17.1017 118.035 17.505C117.507 17.901 116.784 18.099 115.868 18.099ZM120.543 18.099C120.338 18.099 120.166 18.033 120.026 17.901C119.887 17.7617 119.817 17.5893 119.817 17.384C119.817 17.1787 119.887 17.0063 120.026 16.867C120.166 16.7277 120.338 16.658 120.543 16.658C120.741 16.658 120.914 16.7313 121.06 16.878C121.207 17.0173 121.28 17.186 121.28 17.384C121.28 17.582 121.207 17.7507 121.06 17.89C120.914 18.0293 120.741 18.099 120.543 18.099ZM125.379 18.099C124.844 18.099 124.349 17.9963 123.894 17.791C123.447 17.5783 123.091 17.296 122.827 16.944C122.563 16.5847 122.431 16.1887 122.431 15.756V12.544C122.431 12.1113 122.56 11.719 122.816 11.367C123.08 11.0077 123.436 10.7253 123.883 10.52C124.338 10.3073 124.837 10.201 125.379 10.201C125.922 10.201 126.417 10.3073 126.864 10.52C127.319 10.7253 127.675 11.0077 127.931 11.367C128.195 11.719 128.327 12.1113 128.327 12.544V15.756C128.327 16.1887 128.195 16.5847 127.931 16.944C127.667 17.296 127.308 17.5783 126.853 17.791C126.406 17.9963 125.915 18.099 125.379 18.099ZM125.379 17.175C125.944 17.175 126.402 17.043 126.754 16.779C127.114 16.5077 127.293 16.1593 127.293 15.734V12.566C127.293 12.1407 127.114 11.796 126.754 11.532C126.402 11.2607 125.944 11.125 125.379 11.125C124.815 11.125 124.353 11.2607 123.993 11.532C123.641 11.796 123.465 12.1407 123.465 12.566V15.734C123.465 16.1593 123.641 16.5077 123.993 16.779C124.353 17.043 124.815 17.175 125.379 17.175Z" fill="white"/>
</g>
<defs>
<clipPath id="clip0_8_8">
<rect width="137" height="28" fill="white"/>
</clipPath>
</defs>
</svg>
