<svg width="134" height="28" viewBox="0 0 134 28" fill="none" xmlns="http://www.w3.org/2000/svg">
<g clip-path="url(#clip0_10_12)">
<rect width="134" height="28" fill="white"/>
<rect width="80" height="28" fill="#2F2626"/>
<path d="M12.77 11.059C12.77 10.7877 12.8617 10.5787 13.045 10.432C13.2283 10.278 13.4813 10.201 13.804 10.201L16.466 16.592L16.257 17.109L16.334 17.142L19.15 10.201C19.4727 10.201 19.7257 10.278 19.909 10.432C20.0997 10.586 20.195 10.7987 20.195 11.07V18.099C19.513 18.099 19.172 17.8167 19.172 17.252V12.621L19.458 11.862L19.37 11.84L16.917 17.802C16.8803 17.89 16.8217 17.9597 16.741 18.011C16.6603 18.0697 16.576 18.099 16.488 18.099C16.3927 18.099 16.3047 18.0733 16.224 18.022C16.1433 17.9707 16.0847 17.8973 16.048 17.802L13.595 11.829L13.507 11.862L13.793 12.61V17.252C13.793 17.5307 13.705 17.7433 13.529 17.89C13.3603 18.0293 13.1073 18.099 12.77 18.099V11.059ZM23.5657 18.099C22.9351 18.099 22.4254 17.9303 22.0367 17.593C21.6554 17.2557 21.4647 16.812 21.4647 16.262C21.4647 15.7047 21.6664 15.2573 22.0697 14.92C22.4731 14.5753 23.0047 14.403 23.6647 14.403C24.3687 14.403 24.9481 14.6523 25.4027 15.151L25.4467 15.107C25.3661 15.019 25.2744 14.9273 25.1717 14.832V14.37C25.1717 13.996 25.0544 13.7063 24.8197 13.501C24.5851 13.2957 24.2514 13.193 23.8187 13.193C23.0487 13.193 22.4987 13.4973 22.1687 14.106C22.0514 14.0473 21.9524 13.9703 21.8717 13.875C21.7984 13.7723 21.7617 13.6697 21.7617 13.567C21.7617 13.369 21.8607 13.182 22.0587 13.006C22.2567 12.8227 22.5171 12.676 22.8397 12.566C23.1697 12.456 23.5144 12.401 23.8737 12.401C24.5704 12.401 25.1167 12.5733 25.5127 12.918C25.9161 13.2627 26.1177 13.7393 26.1177 14.348V17.362C26.1177 17.6187 26.0444 17.8057 25.8977 17.923C25.7511 18.0403 25.5201 18.099 25.2047 18.099V17.582C25.3587 17.4207 25.4431 17.3253 25.4577 17.296L25.4137 17.252C24.9371 17.8167 24.3211 18.099 23.5657 18.099ZM23.7307 17.34C24.1854 17.34 24.5411 17.2447 24.7977 17.054C25.0617 16.8633 25.1937 16.5993 25.1937 16.262C25.1937 15.9247 25.0654 15.657 24.8087 15.459C24.5521 15.261 24.2001 15.162 23.7527 15.162C23.3347 15.162 23.0047 15.261 22.7627 15.459C22.5281 15.6497 22.4107 15.9173 22.4107 16.262C22.4107 16.6067 22.5244 16.8743 22.7517 17.065C22.9864 17.2483 23.3127 17.34 23.7307 17.34ZM28.331 11.576C28.1256 11.576 27.9533 11.51 27.814 11.378C27.6746 11.246 27.605 11.081 27.605 10.883C27.605 10.685 27.6746 10.5237 27.814 10.399C27.9533 10.267 28.1256 10.201 28.331 10.201C28.529 10.201 28.6976 10.267 28.837 10.399C28.9763 10.5237 29.046 10.685 29.046 10.883C29.046 11.081 28.9763 11.246 28.837 11.378C28.6976 11.51 28.529 11.576 28.331 11.576ZM27.847 13.105C27.847 12.863 27.924 12.687 28.078 12.577C28.2393 12.4597 28.4813 12.401 28.804 12.401V17.395C28.804 17.637 28.7233 17.8167 28.562 17.934C28.408 18.044 28.1696 18.099 27.847 18.099V13.105ZM30.5913 13.215C30.5913 12.6723 30.8993 12.401 31.5153 12.401V13.105C31.4493 13.171 31.3723 13.27 31.2843 13.402L31.3283 13.446C31.5483 13.138 31.8343 12.8887 32.1863 12.698C32.5383 12.5 32.9196 12.401 33.3303 12.401C33.9243 12.401 34.3936 12.577 34.7383 12.929C35.083 13.281 35.2553 13.7357 35.2553 14.293V17.395C35.2553 17.637 35.1746 17.8167 35.0133 17.934C34.8593 18.044 34.621 18.099 34.2983 18.099V14.392C34.2983 14.04 34.1993 13.7613 34.0013 13.556C33.8033 13.3507 33.5026 13.248 33.0993 13.248C32.828 13.248 32.5713 13.3067 32.3293 13.424C32.0946 13.534 31.904 13.688 31.7573 13.886C31.618 14.0767 31.5483 14.2857 31.5483 14.513V17.395C31.5483 17.637 31.4676 17.8167 31.3063 17.934C31.1523 18.044 30.914 18.099 30.5913 18.099V13.215ZM38.8711 18.099C38.3504 18.099 37.9618 17.9523 37.7051 17.659C37.4484 17.3583 37.3201 16.966 37.3201 16.482V13.27H36.2971C36.2971 13.0207 36.3521 12.83 36.4621 12.698C36.5721 12.566 36.7224 12.5 36.9131 12.5H37.3311V11.455C37.3311 11.213 37.4081 11.037 37.5621 10.927C37.7234 10.8097 37.9618 10.751 38.2771 10.751V12.5H39.7401C39.7401 13.0133 39.5091 13.27 39.0471 13.27H38.2881V16.449C38.2881 16.7423 38.3394 16.9513 38.4421 17.076C38.5521 17.1933 38.7464 17.252 39.0251 17.252C39.2818 17.252 39.5238 17.186 39.7511 17.054C39.8464 17.1493 39.8941 17.2777 39.8941 17.439C39.8941 17.615 39.8024 17.769 39.6191 17.901C39.4358 18.033 39.1864 18.099 38.8711 18.099ZM42.719 18.099C42.0884 18.099 41.5787 17.9303 41.19 17.593C40.8087 17.2557 40.618 16.812 40.618 16.262C40.618 15.7047 40.8197 15.2573 41.223 14.92C41.6264 14.5753 42.158 14.403 42.818 14.403C43.522 14.403 44.1014 14.6523 44.556 15.151L44.6 15.107C44.5194 15.019 44.4277 14.9273 44.325 14.832V14.37C44.325 13.996 44.2077 13.7063 43.973 13.501C43.7384 13.2957 43.4047 13.193 42.972 13.193C42.202 13.193 41.652 13.4973 41.322 14.106C41.2047 14.0473 41.1057 13.9703 41.025 13.875C40.9517 13.7723 40.915 13.6697 40.915 13.567C40.915 13.369 41.014 13.182 41.212 13.006C41.41 12.8227 41.6704 12.676 41.993 12.566C42.323 12.456 42.6677 12.401 43.027 12.401C43.7237 12.401 44.27 12.5733 44.666 12.918C45.0694 13.2627 45.271 13.7393 45.271 14.348V17.362C45.271 17.6187 45.1977 17.8057 45.051 17.923C44.9044 18.0403 44.6734 18.099 44.358 18.099V17.582C44.512 17.4207 44.5964 17.3253 44.611 17.296L44.567 17.252C44.0904 17.8167 43.4744 18.099 42.719 18.099ZM42.884 17.34C43.3387 17.34 43.6944 17.2447 43.951 17.054C44.215 16.8633 44.347 16.5993 44.347 16.262C44.347 15.9247 44.2187 15.657 43.962 15.459C43.7054 15.261 43.3534 15.162 42.906 15.162C42.488 15.162 42.158 15.261 41.916 15.459C41.6814 15.6497 41.564 15.9173 41.564 16.262C41.564 16.6067 41.6777 16.8743 41.905 17.065C42.1397 17.2483 42.466 17.34 42.884 17.34ZM47.4843 11.576C47.2789 11.576 47.1066 11.51 46.9673 11.378C46.8279 11.246 46.7583 11.081 46.7583 10.883C46.7583 10.685 46.8279 10.5237 46.9673 10.399C47.1066 10.267 47.2789 10.201 47.4843 10.201C47.6823 10.201 47.8509 10.267 47.9903 10.399C48.1296 10.5237 48.1993 10.685 48.1993 10.883C48.1993 11.081 48.1296 11.246 47.9903 11.378C47.8509 11.51 47.6823 11.576 47.4843 11.576ZM47.0003 13.105C47.0003 12.863 47.0773 12.687 47.2313 12.577C47.3926 12.4597 47.6346 12.401 47.9573 12.401V17.395C47.9573 17.637 47.8766 17.8167 47.7153 17.934C47.5613 18.044 47.3229 18.099 47.0003 18.099V13.105ZM49.7446 13.215C49.7446 12.6723 50.0526 12.401 50.6686 12.401V13.105C50.6026 13.171 50.5256 13.27 50.4376 13.402L50.4816 13.446C50.7016 13.138 50.9876 12.8887 51.3396 12.698C51.6916 12.5 52.0729 12.401 52.4836 12.401C53.0776 12.401 53.5469 12.577 53.8916 12.929C54.2363 13.281 54.4086 13.7357 54.4086 14.293V17.395C54.4086 17.637 54.3279 17.8167 54.1666 17.934C54.0126 18.044 53.7743 18.099 53.4516 18.099V14.392C53.4516 14.04 53.3526 13.7613 53.1546 13.556C52.9566 13.3507 52.6559 13.248 52.2526 13.248C51.9813 13.248 51.7246 13.3067 51.4826 13.424C51.2479 13.534 51.0573 13.688 50.9106 13.886C50.7713 14.0767 50.7016 14.2857 50.7016 14.513V17.395C50.7016 17.637 50.6209 17.8167 50.4596 17.934C50.3056 18.044 50.0673 18.099 49.7446 18.099V13.215ZM58.0464 18.099C57.5991 18.099 57.1994 18.0147 56.8474 17.846C56.4954 17.67 56.2204 17.4317 56.0224 17.131C55.8244 16.823 55.7254 16.4783 55.7254 16.097V14.469C55.7254 14.0803 55.8281 13.7283 56.0334 13.413C56.2461 13.0977 56.5284 12.852 56.8804 12.676C57.2398 12.4927 57.6284 12.401 58.0464 12.401C58.4644 12.401 58.8458 12.489 59.1904 12.665C59.5424 12.841 59.8174 13.083 60.0154 13.391C60.2208 13.699 60.3234 14.0473 60.3234 14.436V15.14C60.3234 15.2573 60.2794 15.3563 60.1914 15.437C60.1034 15.5177 59.9971 15.558 59.8724 15.558H56.6604V16.053C56.6604 16.427 56.7778 16.7277 57.0124 16.955C57.2544 17.1823 57.5991 17.296 58.0464 17.296C58.4938 17.296 58.8348 17.197 59.0694 16.999C59.3041 16.801 59.4214 16.5333 59.4214 16.196C59.6414 16.1813 59.8248 16.2253 59.9714 16.328C60.1254 16.4233 60.2024 16.5663 60.2024 16.757C60.2024 16.9917 60.0998 17.2117 59.8944 17.417C59.6964 17.6223 59.4324 17.7873 59.1024 17.912C58.7724 18.0367 58.4204 18.099 58.0464 18.099ZM59.4324 14.81V14.436C59.4324 14.0693 59.3041 13.7723 59.0474 13.545C58.7981 13.3103 58.4644 13.193 58.0464 13.193C57.6284 13.193 57.2911 13.3103 57.0344 13.545C56.7851 13.7723 56.6604 14.0693 56.6604 14.436V14.81H59.4324ZM63.6062 18.099C62.9756 18.099 62.4622 17.9267 62.0662 17.582C61.6776 17.23 61.4832 16.7643 61.4832 16.185V14.304C61.4832 13.93 61.5749 13.6 61.7582 13.314C61.9416 13.0207 62.1946 12.797 62.5172 12.643C62.8472 12.4817 63.2249 12.401 63.6502 12.401C63.9949 12.401 64.3139 12.4743 64.6072 12.621C64.9006 12.7603 65.1572 12.9473 65.3772 13.182L65.4102 13.127C65.3589 13.0537 65.2819 12.973 65.1792 12.885V10.949C65.1792 10.707 65.2599 10.5237 65.4212 10.399C65.5826 10.267 65.8246 10.201 66.1472 10.201V17.318C66.1472 17.56 66.0739 17.7507 65.9272 17.89C65.7879 18.0293 65.5606 18.099 65.2452 18.099V17.483C65.3479 17.351 65.4176 17.2557 65.4542 17.197L65.4212 17.153C65.1866 17.4463 64.9262 17.6773 64.6402 17.846C64.3542 18.0147 64.0096 18.099 63.6062 18.099ZM63.8152 17.252C64.2039 17.252 64.5302 17.153 64.7942 16.955C65.0582 16.7497 65.1902 16.4967 65.1902 16.196V14.293C65.1902 13.9997 65.0656 13.754 64.8162 13.556C64.5669 13.3507 64.2296 13.248 63.8042 13.248C63.3716 13.248 63.0342 13.347 62.7922 13.545C62.5576 13.7357 62.4402 14.0033 62.4402 14.348V16.141C62.4402 16.5003 62.5576 16.7753 62.7922 16.966C63.0342 17.1567 63.3752 17.252 63.8152 17.252ZM69.3451 14.986C69.3451 14.656 69.4294 14.3883 69.5981 14.183C69.7741 13.9777 70.0307 13.7577 70.3681 13.523C70.6834 13.3103 70.9181 13.1123 71.0721 12.929C71.2334 12.7457 71.3141 12.5147 71.3141 12.236C71.3141 11.8547 71.2004 11.5687 70.9731 11.378C70.7457 11.1873 70.3901 11.092 69.9061 11.092C69.4661 11.092 69.1067 11.2167 68.8281 11.466C68.5567 11.708 68.4211 12.0453 68.4211 12.478C68.4211 12.6173 68.4284 12.7347 68.4431 12.83C68.4064 12.8373 68.3551 12.841 68.2891 12.841C68.0397 12.841 67.8307 12.7787 67.6621 12.654C67.4934 12.522 67.4091 12.346 67.4091 12.126C67.4091 11.774 67.5227 11.4513 67.7501 11.158C67.9847 10.8573 68.2927 10.6227 68.6741 10.454C69.0554 10.2853 69.4661 10.201 69.9061 10.201C70.6174 10.201 71.2004 10.377 71.6551 10.729C72.1097 11.081 72.3371 11.5687 72.3371 12.192C72.3371 12.4707 72.2784 12.7163 72.1611 12.929C72.0511 13.1343 71.9154 13.3067 71.7541 13.446C71.6001 13.5853 71.3984 13.743 71.1491 13.919C70.8777 14.1097 70.6761 14.2747 70.5441 14.414C70.4121 14.546 70.3461 14.7 70.3461 14.876V15.096C70.3461 15.5507 70.0124 15.778 69.3451 15.778V14.986ZM69.8291 18.099C69.6017 18.099 69.4111 18.0293 69.2571 17.89C69.1104 17.7433 69.0371 17.56 69.0371 17.34C69.0371 17.1273 69.1104 16.9477 69.2571 16.801C69.4111 16.6543 69.6017 16.581 69.8291 16.581C70.0564 16.581 70.2471 16.6543 70.4011 16.801C70.5551 16.9477 70.6321 17.1273 70.6321 17.34C70.6321 17.56 70.5551 17.7433 70.4011 17.89C70.2471 18.0293 70.0564 18.099 69.8291 18.099Z" fill="white"/>
<rect x="80" width="54" height="28" fill="#525147"/>
<path d="M100.94 14.46L98.45 10.03C98.4967 9.99667 98.5667 9.97 98.66 9.95C98.76 9.92333 98.8533 9.91 98.94 9.91C99.28 9.91 99.5233 10.0533 99.67 10.34L101.38 13.55L101.17 13.97L101.24 14.01L103.14 10.34C103.293 10.0533 103.54 9.91 103.88 9.91C103.967 9.91 104.057 9.92333 104.15 9.95C104.25 9.97 104.323 9.99667 104.37 10.03L101.88 14.46V16.31C101.88 16.5633 101.8 16.7567 101.64 16.89C101.48 17.0233 101.247 17.09 100.94 17.09V14.46ZM106.276 17.09C105.87 17.09 105.506 17.0133 105.186 16.86C104.866 16.7 104.616 16.4833 104.436 16.21C104.256 15.93 104.166 15.6167 104.166 15.27V13.79C104.166 13.4367 104.26 13.1167 104.446 12.83C104.64 12.5433 104.896 12.32 105.216 12.16C105.543 11.9933 105.896 11.91 106.276 11.91C106.656 11.91 107.003 11.99 107.316 12.15C107.636 12.31 107.886 12.53 108.066 12.81C108.253 13.09 108.346 13.4067 108.346 13.76V14.4C108.346 14.5067 108.306 14.5967 108.226 14.67C108.146 14.7433 108.05 14.78 107.936 14.78H105.016V15.23C105.016 15.57 105.123 15.8433 105.336 16.05C105.556 16.2567 105.87 16.36 106.276 16.36C106.683 16.36 106.993 16.27 107.206 16.09C107.42 15.91 107.526 15.6667 107.526 15.36C107.726 15.3467 107.893 15.3867 108.026 15.48C108.166 15.5667 108.236 15.6967 108.236 15.87C108.236 16.0833 108.143 16.2833 107.956 16.47C107.776 16.6567 107.536 16.8067 107.236 16.92C106.936 17.0333 106.616 17.09 106.276 17.09ZM107.536 14.1V13.76C107.536 13.4267 107.42 13.1567 107.186 12.95C106.96 12.7367 106.656 12.63 106.276 12.63C105.896 12.63 105.59 12.7367 105.356 12.95C105.13 13.1567 105.016 13.4267 105.016 13.76V14.1H107.536ZM111.311 17.09C110.971 17.09 110.651 17.04 110.351 16.94C110.051 16.8333 109.807 16.6833 109.621 16.49C109.441 16.2967 109.351 16.07 109.351 15.81C109.351 15.49 109.544 15.3167 109.931 15.29C109.997 15.6633 110.154 15.94 110.401 16.12C110.654 16.2933 110.974 16.38 111.361 16.38C111.747 16.38 112.047 16.3233 112.261 16.21C112.474 16.0967 112.581 15.9233 112.581 15.69C112.581 15.5233 112.537 15.39 112.451 15.29C112.364 15.1833 112.224 15.0933 112.031 15.02C111.844 14.94 111.574 14.8633 111.221 14.79C110.781 14.69 110.431 14.5833 110.171 14.47C109.911 14.3567 109.711 14.2067 109.571 14.02C109.437 13.8333 109.371 13.5867 109.371 13.28C109.371 13.02 109.451 12.7867 109.611 12.58C109.771 12.3667 109.991 12.2033 110.271 12.09C110.557 11.97 110.881 11.91 111.241 11.91C111.574 11.91 111.887 11.9567 112.181 12.05C112.481 12.1433 112.721 12.2767 112.901 12.45C113.087 12.6233 113.181 12.8233 113.181 13.05C113.181 13.2033 113.121 13.3267 113.001 13.42C112.881 13.5067 112.714 13.5567 112.501 13.57C112.481 13.2767 112.361 13.0467 112.141 12.88C111.927 12.7067 111.627 12.62 111.241 12.62C110.921 12.62 110.667 12.68 110.481 12.8C110.294 12.92 110.201 13.08 110.201 13.28C110.201 13.4933 110.287 13.6533 110.461 13.76C110.641 13.86 110.944 13.9567 111.371 14.05C112.071 14.19 112.584 14.3833 112.911 14.63C113.244 14.87 113.411 15.2133 113.411 15.66C113.411 16.1133 113.227 16.4667 112.861 16.72C112.494 16.9667 111.977 17.09 111.311 17.09Z" fill="white"/>
</g>
<defs>
<clipPath id="clip0_10_12">
<rect width="134" height="28" fill="white"/>
</clipPath>
</defs>
</svg>
