<svg width="134" height="28" viewBox="0 0 134 28" fill="none" xmlns="http://www.w3.org/2000/svg">
<g clip-path="url(#clip0_10_2)">
<rect width="134" height="28" fill="white"/>
<rect width="80" height="28" fill="#2F2626"/>
<path d="M13.663 18.099C13.0543 18.099 12.508 17.9817 12.024 17.747C11.5473 17.505 11.1733 17.175 10.902 16.757C10.6307 16.3317 10.495 15.8623 10.495 15.349V12.929C10.495 12.4157 10.6307 11.9537 10.902 11.543C11.1733 11.125 11.5473 10.7987 12.024 10.564C12.508 10.322 13.0543 10.201 13.663 10.201C14.279 10.201 14.8253 10.322 15.302 10.564C15.786 10.7987 16.1637 11.125 16.435 11.543C16.7063 11.9537 16.842 12.4157 16.842 12.929V15.349C16.842 15.8623 16.7063 16.3317 16.435 16.757C16.1637 17.175 15.786 17.505 15.302 17.747C14.818 17.9817 14.2717 18.099 13.663 18.099ZM13.663 17.197C14.345 17.197 14.8767 17.0283 15.258 16.691C15.6393 16.3537 15.83 15.9027 15.83 15.338V12.951C15.83 12.3863 15.6393 11.939 15.258 11.609C14.8767 11.2717 14.345 11.103 13.663 11.103C12.9883 11.103 12.4603 11.2717 12.079 11.609C11.6977 11.939 11.507 12.3863 11.507 12.951V15.338C11.507 15.9027 11.6977 16.3537 12.079 16.691C12.4603 17.0283 12.9883 17.197 13.663 17.197ZM18.1069 13.182C18.1069 12.94 18.1802 12.7493 18.3269 12.61C18.4809 12.4707 18.7119 12.401 19.0199 12.401V13.017L18.7999 13.303L18.8329 13.347C19.0602 13.0537 19.3206 12.8227 19.6139 12.654C19.9072 12.4853 20.2556 12.401 20.6589 12.401C21.2896 12.401 21.7992 12.577 22.1879 12.929C22.5766 13.2737 22.7709 13.7357 22.7709 14.315V16.196C22.7709 16.7753 22.5692 17.2373 22.1659 17.582C21.7626 17.9267 21.2382 18.099 20.5929 18.099C20.2482 18.099 19.9292 18.0293 19.6359 17.89C19.3499 17.7433 19.0969 17.5527 18.8769 17.318L18.8439 17.373C18.8952 17.4463 18.9722 17.527 19.0749 17.615V19.551C19.0749 20.0497 18.7522 20.299 18.1069 20.299V13.182ZM20.4499 17.252C20.8826 17.252 21.2199 17.1567 21.4619 16.966C21.7039 16.768 21.8249 16.4967 21.8249 16.152V14.359C21.8249 13.9997 21.7039 13.7247 21.4619 13.534C21.2199 13.3433 20.8789 13.248 20.4389 13.248C20.0502 13.248 19.7239 13.3507 19.4599 13.556C19.1959 13.754 19.0639 14.0033 19.0639 14.304V16.207C19.0639 16.5003 19.1886 16.7497 19.4379 16.955C19.6872 17.153 20.0246 17.252 20.4499 17.252ZM26.4087 18.099C25.9614 18.099 25.5617 18.0147 25.2097 17.846C24.8577 17.67 24.5827 17.4317 24.3847 17.131C24.1867 16.823 24.0877 16.4783 24.0877 16.097V14.469C24.0877 14.0803 24.1904 13.7283 24.3957 13.413C24.6084 13.0977 24.8907 12.852 25.2427 12.676C25.6021 12.4927 25.9907 12.401 26.4087 12.401C26.8267 12.401 27.2081 12.489 27.5527 12.665C27.9047 12.841 28.1797 13.083 28.3777 13.391C28.5831 13.699 28.6857 14.0473 28.6857 14.436V15.14C28.6857 15.2573 28.6417 15.3563 28.5537 15.437C28.4657 15.5177 28.3594 15.558 28.2347 15.558H25.0227V16.053C25.0227 16.427 25.1401 16.7277 25.3747 16.955C25.6167 17.1823 25.9614 17.296 26.4087 17.296C26.8561 17.296 27.1971 17.197 27.4317 16.999C27.6664 16.801 27.7837 16.5333 27.7837 16.196C28.0037 16.1813 28.1871 16.2253 28.3337 16.328C28.4877 16.4233 28.5647 16.5663 28.5647 16.757C28.5647 16.9917 28.4621 17.2117 28.2567 17.417C28.0587 17.6223 27.7947 17.7873 27.4647 17.912C27.1347 18.0367 26.7827 18.099 26.4087 18.099ZM27.7947 14.81V14.436C27.7947 14.0693 27.6664 13.7723 27.4097 13.545C27.1604 13.3103 26.8267 13.193 26.4087 13.193C25.9907 13.193 25.6534 13.3103 25.3967 13.545C25.1474 13.7723 25.0227 14.0693 25.0227 14.436V14.81H27.7947ZM29.9555 13.215C29.9555 12.6723 30.2635 12.401 30.8795 12.401V13.105C30.8135 13.171 30.7365 13.27 30.6485 13.402L30.6925 13.446C30.9125 13.138 31.1985 12.8887 31.5505 12.698C31.9025 12.5 32.2839 12.401 32.6945 12.401C33.2885 12.401 33.7579 12.577 34.1025 12.929C34.4472 13.281 34.6195 13.7357 34.6195 14.293V17.395C34.6195 17.637 34.5389 17.8167 34.3775 17.934C34.2235 18.044 33.9852 18.099 33.6625 18.099V14.392C33.6625 14.04 33.5635 13.7613 33.3655 13.556C33.1675 13.3507 32.8669 13.248 32.4635 13.248C32.1922 13.248 31.9355 13.3067 31.6935 13.424C31.4589 13.534 31.2682 13.688 31.1215 13.886C30.9822 14.0767 30.9125 14.2857 30.9125 14.513V17.395C30.9125 17.637 30.8319 17.8167 30.6705 17.934C30.5165 18.044 30.2782 18.099 29.9555 18.099V13.215ZM41.6323 18.099C41.0163 18.099 40.481 18.011 40.0263 17.835C39.579 17.659 39.238 17.4243 39.0033 17.131C38.7686 16.8377 38.6513 16.5223 38.6513 16.185C38.6513 15.9063 38.7246 15.6937 38.8713 15.547C39.018 15.393 39.2416 15.316 39.5423 15.316C39.5423 15.9393 39.7293 16.416 40.1033 16.746C40.4773 17.0687 41.0016 17.23 41.6763 17.23C42.3216 17.23 42.8166 17.1237 43.1613 16.911C43.506 16.691 43.6783 16.3683 43.6783 15.943C43.6783 15.6863 43.6123 15.4773 43.4803 15.316C43.3556 15.1473 43.1393 15.0043 42.8313 14.887C42.5306 14.7623 42.0943 14.6377 41.5223 14.513C40.8476 14.3663 40.3123 14.1977 39.9163 14.007C39.5203 13.809 39.2306 13.5707 39.0473 13.292C38.864 13.0133 38.7723 12.6687 38.7723 12.258C38.7723 11.8473 38.886 11.488 39.1133 11.18C39.348 10.8647 39.678 10.6227 40.1033 10.454C40.5286 10.2853 41.0236 10.201 41.5883 10.201C42.1236 10.201 42.6003 10.278 43.0183 10.432C43.4436 10.5787 43.7736 10.7913 44.0083 11.07C44.2503 11.3413 44.3713 11.6493 44.3713 11.994C44.3713 12.2067 44.3016 12.3753 44.1623 12.5C44.0303 12.6173 43.8213 12.676 43.5353 12.676C43.4546 12.1187 43.2566 11.7117 42.9413 11.455C42.6333 11.1983 42.1823 11.07 41.5883 11.07C41.0163 11.07 40.5763 11.1727 40.2683 11.378C39.9603 11.576 39.8063 11.8583 39.8063 12.225C39.8063 12.4817 39.8613 12.6943 39.9713 12.863C40.0886 13.0243 40.283 13.1637 40.5543 13.281C40.833 13.3983 41.2216 13.512 41.7203 13.622C42.4683 13.7833 43.055 13.963 43.4803 14.161C43.913 14.359 44.2246 14.601 44.4153 14.887C44.606 15.173 44.7013 15.525 44.7013 15.943C44.7013 16.6103 44.4226 17.1383 43.8653 17.527C43.308 17.9083 42.5636 18.099 41.6323 18.099ZM48.0514 18.099C47.6041 18.099 47.1971 18.0147 46.8304 17.846C46.4711 17.6773 46.1887 17.45 45.9834 17.164C45.7854 16.8707 45.6864 16.5443 45.6864 16.185V14.381C45.6864 14.0143 45.7854 13.6807 45.9834 13.38C46.1887 13.0793 46.4711 12.841 46.8304 12.665C47.1897 12.489 47.5967 12.401 48.0514 12.401C48.5061 12.401 48.9131 12.489 49.2724 12.665C49.6391 12.841 49.9214 13.0793 50.1194 13.38C50.3247 13.6807 50.4274 14.0143 50.4274 14.381V16.185C50.4274 16.5443 50.3247 16.8707 50.1194 17.164C49.9141 17.45 49.6317 17.6773 49.2724 17.846C48.9131 18.0147 48.5061 18.099 48.0514 18.099ZM48.0514 17.274C48.4914 17.274 48.8397 17.1713 49.0964 16.966C49.3604 16.7533 49.4924 16.4783 49.4924 16.141V14.414C49.4924 14.062 49.3604 13.776 49.0964 13.556C48.8397 13.336 48.4914 13.226 48.0514 13.226C47.6187 13.226 47.2704 13.336 47.0064 13.556C46.7424 13.776 46.6104 14.062 46.6104 14.414V16.141C46.6104 16.4783 46.7387 16.7533 46.9954 16.966C47.2594 17.1713 47.6114 17.274 48.0514 17.274ZM56.0906 17.285C56.0906 17.8277 55.7826 18.099 55.1666 18.099V17.395C55.2326 17.329 55.3096 17.23 55.3976 17.098L55.3536 17.054C55.1336 17.3693 54.8549 17.6223 54.5176 17.813C54.1876 18.0037 53.8246 18.099 53.4286 18.099C53.0326 18.099 52.6806 18.0147 52.3726 17.846C52.0719 17.6773 51.8373 17.4427 51.6686 17.142C51.5073 16.8413 51.4266 16.504 51.4266 16.13V13.105C51.4266 12.863 51.5073 12.687 51.6686 12.577C51.8299 12.4597 52.0719 12.401 52.3946 12.401V16.086C52.3946 16.438 52.4973 16.7203 52.7026 16.933C52.9153 17.1457 53.2269 17.252 53.6376 17.252C53.9089 17.252 54.1583 17.197 54.3856 17.087C54.6129 16.9697 54.7926 16.8157 54.9246 16.625C55.0639 16.427 55.1336 16.2143 55.1336 15.987V13.105C55.1336 12.863 55.2106 12.687 55.3646 12.577C55.5259 12.4597 55.7679 12.401 56.0906 12.401V17.285ZM60.0144 13.248C59.6038 13.248 59.2628 13.3727 58.9914 13.622C58.7201 13.864 58.5844 14.161 58.5844 14.513V17.395C58.5844 17.637 58.5038 17.8167 58.3424 17.934C58.1884 18.044 57.9501 18.099 57.6274 18.099V13.215C57.6274 12.6723 57.9354 12.401 58.5514 12.401V13.072C58.4341 13.1967 58.3534 13.3067 58.3094 13.402L58.3534 13.446C58.8228 12.7493 59.4094 12.401 60.1134 12.401C60.3774 12.401 60.5791 12.467 60.7184 12.599C60.8578 12.7237 60.9274 12.8777 60.9274 13.061C60.9274 13.193 60.8944 13.3103 60.8284 13.413C60.6231 13.303 60.3518 13.248 60.0144 13.248ZM63.7913 18.099C63.344 18.099 62.9443 18.0183 62.5923 17.857C62.2403 17.6957 61.9653 17.4683 61.7673 17.175C61.5766 16.8817 61.4813 16.548 61.4813 16.174V14.392C61.4813 14.0033 61.5766 13.6587 61.7673 13.358C61.9653 13.0573 62.2366 12.8227 62.5813 12.654C62.926 12.4853 63.322 12.401 63.7693 12.401C64.1873 12.401 64.5576 12.4633 64.8803 12.588C65.2103 12.7053 65.467 12.874 65.6503 13.094C65.8336 13.314 65.9253 13.5633 65.9253 13.842C65.9253 14.0253 65.852 14.1757 65.7053 14.293C65.566 14.403 65.3826 14.4507 65.1553 14.436C65.1553 14.084 65.027 13.798 64.7703 13.578C64.521 13.358 64.1946 13.248 63.7913 13.248C63.388 13.248 63.0616 13.358 62.8123 13.578C62.563 13.7907 62.4383 14.0693 62.4383 14.414V16.13C62.4383 16.46 62.5666 16.7313 62.8233 16.944C63.08 17.1493 63.41 17.252 63.8133 17.252C64.2166 17.252 64.543 17.142 64.7923 16.922C65.049 16.702 65.1773 16.4197 65.1773 16.075C65.412 16.0603 65.599 16.108 65.7383 16.218C65.885 16.3207 65.9583 16.4673 65.9583 16.658C65.9583 16.9367 65.8666 17.186 65.6833 17.406C65.5 17.626 65.2433 17.7983 64.9133 17.923C64.5833 18.0403 64.2093 18.099 63.7913 18.099ZM69.4312 18.099C68.9839 18.099 68.5842 18.0147 68.2322 17.846C67.8802 17.67 67.6052 17.4317 67.4072 17.131C67.2092 16.823 67.1102 16.4783 67.1102 16.097V14.469C67.1102 14.0803 67.2129 13.7283 67.4182 13.413C67.6309 13.0977 67.9132 12.852 68.2652 12.676C68.6245 12.4927 69.0132 12.401 69.4312 12.401C69.8492 12.401 70.2305 12.489 70.5752 12.665C70.9272 12.841 71.2022 13.083 71.4002 13.391C71.6055 13.699 71.7082 14.0473 71.7082 14.436V15.14C71.7082 15.2573 71.6642 15.3563 71.5762 15.437C71.4882 15.5177 71.3819 15.558 71.2572 15.558H68.0452V16.053C68.0452 16.427 68.1625 16.7277 68.3972 16.955C68.6392 17.1823 68.9839 17.296 69.4312 17.296C69.8785 17.296 70.2195 17.197 70.4542 16.999C70.6889 16.801 70.8062 16.5333 70.8062 16.196C71.0262 16.1813 71.2095 16.2253 71.3562 16.328C71.5102 16.4233 71.5872 16.5663 71.5872 16.757C71.5872 16.9917 71.4845 17.2117 71.2792 17.417C71.0812 17.6223 70.8172 17.7873 70.4872 17.912C70.1572 18.0367 69.8052 18.099 69.4312 18.099ZM70.8172 14.81V14.436C70.8172 14.0693 70.6889 13.7723 70.4322 13.545C70.1829 13.3103 69.8492 13.193 69.4312 13.193C69.0132 13.193 68.6759 13.3103 68.4192 13.545C68.1699 13.7723 68.0452 14.0693 68.0452 14.436V14.81H70.8172Z" fill="white"/>
<rect x="80" width="54" height="28" fill="#02A644"/>
<path d="M100.94 14.46L98.45 10.03C98.4967 9.99667 98.5667 9.97 98.66 9.95C98.76 9.92333 98.8533 9.91 98.94 9.91C99.28 9.91 99.5233 10.0533 99.67 10.34L101.38 13.55L101.17 13.97L101.24 14.01L103.14 10.34C103.293 10.0533 103.54 9.91 103.88 9.91C103.967 9.91 104.057 9.92333 104.15 9.95C104.25 9.97 104.323 9.99667 104.37 10.03L101.88 14.46V16.31C101.88 16.5633 101.8 16.7567 101.64 16.89C101.48 17.0233 101.247 17.09 100.94 17.09V14.46ZM106.276 17.09C105.87 17.09 105.506 17.0133 105.186 16.86C104.866 16.7 104.616 16.4833 104.436 16.21C104.256 15.93 104.166 15.6167 104.166 15.27V13.79C104.166 13.4367 104.26 13.1167 104.446 12.83C104.64 12.5433 104.896 12.32 105.216 12.16C105.543 11.9933 105.896 11.91 106.276 11.91C106.656 11.91 107.003 11.99 107.316 12.15C107.636 12.31 107.886 12.53 108.066 12.81C108.253 13.09 108.346 13.4067 108.346 13.76V14.4C108.346 14.5067 108.306 14.5967 108.226 14.67C108.146 14.7433 108.05 14.78 107.936 14.78H105.016V15.23C105.016 15.57 105.123 15.8433 105.336 16.05C105.556 16.2567 105.87 16.36 106.276 16.36C106.683 16.36 106.993 16.27 107.206 16.09C107.42 15.91 107.526 15.6667 107.526 15.36C107.726 15.3467 107.893 15.3867 108.026 15.48C108.166 15.5667 108.236 15.6967 108.236 15.87C108.236 16.0833 108.143 16.2833 107.956 16.47C107.776 16.6567 107.536 16.8067 107.236 16.92C106.936 17.0333 106.616 17.09 106.276 17.09ZM107.536 14.1V13.76C107.536 13.4267 107.42 13.1567 107.186 12.95C106.96 12.7367 106.656 12.63 106.276 12.63C105.896 12.63 105.59 12.7367 105.356 12.95C105.13 13.1567 105.016 13.4267 105.016 13.76V14.1H107.536ZM111.311 17.09C110.971 17.09 110.651 17.04 110.351 16.94C110.051 16.8333 109.807 16.6833 109.621 16.49C109.441 16.2967 109.351 16.07 109.351 15.81C109.351 15.49 109.544 15.3167 109.931 15.29C109.997 15.6633 110.154 15.94 110.401 16.12C110.654 16.2933 110.974 16.38 111.361 16.38C111.747 16.38 112.047 16.3233 112.261 16.21C112.474 16.0967 112.581 15.9233 112.581 15.69C112.581 15.5233 112.537 15.39 112.451 15.29C112.364 15.1833 112.224 15.0933 112.031 15.02C111.844 14.94 111.574 14.8633 111.221 14.79C110.781 14.69 110.431 14.5833 110.171 14.47C109.911 14.3567 109.711 14.2067 109.571 14.02C109.437 13.8333 109.371 13.5867 109.371 13.28C109.371 13.02 109.451 12.7867 109.611 12.58C109.771 12.3667 109.991 12.2033 110.271 12.09C110.557 11.97 110.881 11.91 111.241 11.91C111.574 11.91 111.887 11.9567 112.181 12.05C112.481 12.1433 112.721 12.2767 112.901 12.45C113.087 12.6233 113.181 12.8233 113.181 13.05C113.181 13.2033 113.121 13.3267 113.001 13.42C112.881 13.5067 112.714 13.5567 112.501 13.57C112.481 13.2767 112.361 13.0467 112.141 12.88C111.927 12.7067 111.627 12.62 111.241 12.62C110.921 12.62 110.667 12.68 110.481 12.8C110.294 12.92 110.201 13.08 110.201 13.28C110.201 13.4933 110.287 13.6533 110.461 13.76C110.641 13.86 110.944 13.9567 111.371 14.05C112.071 14.19 112.584 14.3833 112.911 14.63C113.244 14.87 113.411 15.2133 113.411 15.66C113.411 16.1133 113.227 16.4667 112.861 16.72C112.494 16.9667 111.977 17.09 111.311 17.09Z" fill="white"/>
</g>
<defs>
<clipPath id="clip0_10_2">
<rect width="134" height="28" fill="white"/>
</clipPath>
</defs>
</svg>
