<svg width="137" height="28" viewBox="0 0 137 28" fill="none" xmlns="http://www.w3.org/2000/svg">
<g clip-path="url(#clip0_7_2)">
<rect width="137" height="28" fill="white"/>
<rect width="80" height="28" fill="#2F2626"/>
<path d="M14.828 18.099C14.586 18.099 14.421 17.989 14.333 17.769L11.495 10.3C11.5537 10.2707 11.6233 10.2487 11.704 10.234C11.7847 10.212 11.858 10.201 11.924 10.201C12.1293 10.201 12.3017 10.2523 12.441 10.355C12.5877 10.4503 12.694 10.586 12.76 10.762L14.773 16.383L14.575 16.944L14.663 16.977L16.896 10.762C16.962 10.586 17.0683 10.4503 17.215 10.355C17.3617 10.2523 17.5377 10.201 17.743 10.201C17.8677 10.201 18.0107 10.234 18.172 10.3L15.334 17.769C15.2973 17.8717 15.235 17.9523 15.147 18.011C15.059 18.0697 14.9527 18.099 14.828 18.099ZM19.4399 10.784C19.4399 10.6447 19.4913 10.531 19.5939 10.443C19.6966 10.3477 19.8213 10.3 19.9679 10.3H24.8409C24.8409 10.608 24.7786 10.8353 24.6539 10.982C24.5293 11.1287 24.3349 11.202 24.0709 11.202H20.4739V13.666H23.5539C23.5539 13.974 23.4916 14.2013 23.3669 14.348C23.2423 14.4947 23.0516 14.568 22.7949 14.568H20.4739V17.098H24.3019C24.5586 17.098 24.7493 17.1713 24.8739 17.318C24.9986 17.4647 25.0609 17.692 25.0609 18H19.9679C19.8213 18 19.6966 17.956 19.5939 17.868C19.4913 17.7727 19.4399 17.6553 19.4399 17.516V10.784ZM26.3257 10.784C26.3257 10.6447 26.3733 10.531 26.4687 10.443C26.5713 10.3477 26.6997 10.3 26.8537 10.3H29.8897C30.601 10.3 31.1657 10.509 31.5837 10.927C32.009 11.3377 32.2217 11.8877 32.2217 12.577C32.2217 13.4423 31.844 14.0547 31.0887 14.414V14.447C31.4187 14.5863 31.6717 14.799 31.8477 15.085C32.0237 15.3637 32.1117 15.7047 32.1117 16.108V17.241C32.1117 17.5197 32.0237 17.7323 31.8477 17.879C31.6717 18.0257 31.415 18.099 31.0777 18.099V16.174C31.0777 15.7413 30.9787 15.415 30.7807 15.195C30.59 14.9677 30.304 14.854 29.9227 14.854H27.3487V17.241C27.3487 17.5197 27.2607 17.7323 27.0847 17.879C26.916 18.0257 26.663 18.099 26.3257 18.099V10.784ZM29.8567 13.963C30.26 13.963 30.579 13.8383 30.8137 13.589C31.0557 13.3397 31.1767 12.9987 31.1767 12.566C31.1767 12.126 31.063 11.7887 30.8357 11.554C30.6083 11.3193 30.282 11.202 29.8567 11.202H27.3487V13.963H29.8567ZM36.4018 18.099C35.7858 18.099 35.2505 18.011 34.7958 17.835C34.3485 17.659 34.0075 17.4243 33.7728 17.131C33.5382 16.8377 33.4208 16.5223 33.4208 16.185C33.4208 15.9063 33.4942 15.6937 33.6408 15.547C33.7875 15.393 34.0112 15.316 34.3118 15.316C34.3118 15.9393 34.4988 16.416 34.8728 16.746C35.2468 17.0687 35.7712 17.23 36.4458 17.23C37.0912 17.23 37.5862 17.1237 37.9308 16.911C38.2755 16.691 38.4478 16.3683 38.4478 15.943C38.4478 15.6863 38.3818 15.4773 38.2498 15.316C38.1252 15.1473 37.9088 15.0043 37.6008 14.887C37.3002 14.7623 36.8638 14.6377 36.2918 14.513C35.6172 14.3663 35.0818 14.1977 34.6858 14.007C34.2898 13.809 34.0002 13.5707 33.8168 13.292C33.6335 13.0133 33.5418 12.6687 33.5418 12.258C33.5418 11.8473 33.6555 11.488 33.8828 11.18C34.1175 10.8647 34.4475 10.6227 34.8728 10.454C35.2982 10.2853 35.7932 10.201 36.3578 10.201C36.8932 10.201 37.3698 10.278 37.7878 10.432C38.2132 10.5787 38.5432 10.7913 38.7778 11.07C39.0198 11.3413 39.1408 11.6493 39.1408 11.994C39.1408 12.2067 39.0712 12.3753 38.9318 12.5C38.7998 12.6173 38.5908 12.676 38.3048 12.676C38.2242 12.1187 38.0262 11.7117 37.7108 11.455C37.4028 11.1983 36.9518 11.07 36.3578 11.07C35.7858 11.07 35.3458 11.1727 35.0378 11.378C34.7298 11.576 34.5758 11.8583 34.5758 12.225C34.5758 12.4817 34.6308 12.6943 34.7408 12.863C34.8582 13.0243 35.0525 13.1637 35.3238 13.281C35.6025 13.3983 35.9912 13.512 36.4898 13.622C37.2378 13.7833 37.8245 13.963 38.2498 14.161C38.6825 14.359 38.9942 14.601 39.1848 14.887C39.3755 15.173 39.4708 15.525 39.4708 15.943C39.4708 16.6103 39.1922 17.1383 38.6348 17.527C38.0775 17.9083 37.3332 18.099 36.4018 18.099ZM40.9509 11.059C40.9509 10.7877 41.0389 10.5787 41.2149 10.432C41.3983 10.278 41.6549 10.201 41.9849 10.201V17.241C41.9849 17.5123 41.8933 17.725 41.7099 17.879C41.5339 18.0257 41.2809 18.099 40.9509 18.099V11.059ZM46.6425 18.099C46.0338 18.099 45.4875 17.9817 45.0035 17.747C44.5268 17.505 44.1528 17.175 43.8815 16.757C43.6102 16.3317 43.4745 15.8623 43.4745 15.349V12.929C43.4745 12.4157 43.6102 11.9537 43.8815 11.543C44.1528 11.125 44.5268 10.7987 45.0035 10.564C45.4875 10.322 46.0338 10.201 46.6425 10.201C47.2585 10.201 47.8048 10.322 48.2815 10.564C48.7655 10.7987 49.1432 11.125 49.4145 11.543C49.6858 11.9537 49.8215 12.4157 49.8215 12.929V15.349C49.8215 15.8623 49.6858 16.3317 49.4145 16.757C49.1432 17.175 48.7655 17.505 48.2815 17.747C47.7975 17.9817 47.2512 18.099 46.6425 18.099ZM46.6425 17.197C47.3245 17.197 47.8562 17.0283 48.2375 16.691C48.6188 16.3537 48.8095 15.9027 48.8095 15.338V12.951C48.8095 12.3863 48.6188 11.939 48.2375 11.609C47.8562 11.2717 47.3245 11.103 46.6425 11.103C45.9678 11.103 45.4398 11.2717 45.0585 11.609C44.6772 11.939 44.4865 12.3863 44.4865 12.951V15.338C44.4865 15.9027 44.6772 16.3537 45.0585 16.691C45.4398 17.0283 45.9678 17.197 46.6425 17.197ZM51.0864 11.092C51.0864 10.8133 51.1707 10.597 51.3394 10.443C51.5154 10.2817 51.7574 10.201 52.0654 10.201L56.3334 16.691L56.4104 16.625L56.0914 16.097V10.201C56.4287 10.201 56.6817 10.2743 56.8504 10.421C57.0264 10.5677 57.1144 10.7803 57.1144 11.059V17.285C57.1144 17.5197 57.0301 17.714 56.8614 17.868C56.7001 18.022 56.4911 18.099 56.2344 18.099L51.8674 11.466L51.7904 11.532L52.1094 12.06V17.241C52.1094 17.5197 52.0214 17.7323 51.8454 17.879C51.6767 18.0257 51.4237 18.099 51.0864 18.099V11.092Z" fill="white"/>
<rect x="80" width="57" height="28" fill="#245965"/>
<path d="M97.815 12.202H97.166C96.9167 12.202 96.7223 12.1213 96.583 11.96C96.451 11.7987 96.385 11.5787 96.385 11.3H98.365C98.5043 11.3 98.618 11.3477 98.706 11.443C98.8013 11.531 98.849 11.6373 98.849 11.762V18.241C98.849 18.5197 98.761 18.7323 98.585 18.879C98.409 19.0257 98.1523 19.099 97.815 19.099V12.202ZM100.841 19.099C100.636 19.099 100.463 19.033 100.324 18.901C100.185 18.7617 100.115 18.5893 100.115 18.384C100.115 18.1787 100.185 18.0063 100.324 17.867C100.463 17.7277 100.636 17.658 100.841 17.658C101.039 17.658 101.211 17.7313 101.358 17.878C101.505 18.0173 101.578 18.186 101.578 18.384C101.578 18.582 101.505 18.7507 101.358 18.89C101.211 19.0293 101.039 19.099 100.841 19.099ZM105.677 19.099C105.142 19.099 104.647 18.9963 104.192 18.791C103.745 18.5783 103.389 18.296 103.125 17.944C102.861 17.5847 102.729 17.1887 102.729 16.756V13.544C102.729 13.1113 102.858 12.719 103.114 12.367C103.378 12.0077 103.734 11.7253 104.181 11.52C104.636 11.3073 105.135 11.201 105.677 11.201C106.22 11.201 106.715 11.3073 107.162 11.52C107.617 11.7253 107.973 12.0077 108.229 12.367C108.493 12.719 108.625 13.1113 108.625 13.544V16.756C108.625 17.1887 108.493 17.5847 108.229 17.944C107.965 18.296 107.606 18.5783 107.151 18.791C106.704 18.9963 106.213 19.099 105.677 19.099ZM105.677 18.175C106.242 18.175 106.7 18.043 107.052 17.779C107.412 17.5077 107.591 17.1593 107.591 16.734V13.566C107.591 13.1407 107.412 12.796 107.052 12.532C106.7 12.2607 106.242 12.125 105.677 12.125C105.113 12.125 104.651 12.2607 104.291 12.532C103.939 12.796 103.763 13.1407 103.763 13.566V16.734C103.763 17.1593 103.939 17.5077 104.291 17.779C104.651 18.043 105.113 18.175 105.677 18.175ZM110.509 19.099C110.304 19.099 110.131 19.033 109.992 18.901C109.853 18.7617 109.783 18.5893 109.783 18.384C109.783 18.1787 109.853 18.0063 109.992 17.867C110.131 17.7277 110.304 17.658 110.509 17.658C110.707 17.658 110.879 17.7313 111.026 17.878C111.173 18.0173 111.246 18.186 111.246 18.384C111.246 18.582 111.173 18.7507 111.026 18.89C110.879 19.0293 110.707 19.099 110.509 19.099ZM115.345 19.099C114.81 19.099 114.315 18.9963 113.86 18.791C113.413 18.5783 113.057 18.296 112.793 17.944C112.529 17.5847 112.397 17.1887 112.397 16.756V13.544C112.397 13.1113 112.526 12.719 112.782 12.367C113.046 12.0077 113.402 11.7253 113.849 11.52C114.304 11.3073 114.803 11.201 115.345 11.201C115.888 11.201 116.383 11.3073 116.83 11.52C117.285 11.7253 117.641 12.0077 117.897 12.367C118.161 12.719 118.293 13.1113 118.293 13.544V16.756C118.293 17.1887 118.161 17.5847 117.897 17.944C117.633 18.296 117.274 18.5783 116.819 18.791C116.372 18.9963 115.881 19.099 115.345 19.099ZM115.345 18.175C115.91 18.175 116.368 18.043 116.72 17.779C117.08 17.5077 117.259 17.1593 117.259 16.734V13.566C117.259 13.1407 117.08 12.796 116.72 12.532C116.368 12.2607 115.91 12.125 115.345 12.125C114.781 12.125 114.319 12.2607 113.959 12.532C113.607 12.796 113.431 13.1407 113.431 13.566V16.734C113.431 17.1593 113.607 17.5077 113.959 17.779C114.319 18.043 114.781 18.175 115.345 18.175Z" fill="white"/>
</g>
<defs>
<clipPath id="clip0_7_2">
<rect width="137" height="28" fill="white"/>
</clipPath>
</defs>
</svg>
