<svg width="134" height="28" viewBox="0 0 134 28" fill="none" xmlns="http://www.w3.org/2000/svg">
<g clip-path="url(#clip0_10_7)">
<rect width="134" height="28" fill="white"/>
<rect width="80" height="28" fill="#2F2626"/>
<path d="M15.3 18.099C15.036 18.099 14.8197 18.0367 14.651 17.912C14.4823 17.78 14.3687 17.5967 14.31 17.362L12.495 10.3C12.605 10.234 12.7443 10.201 12.913 10.201C13.1257 10.201 13.3053 10.256 13.452 10.366C13.5987 10.4687 13.694 10.6117 13.738 10.795L14.937 16.009L14.761 16.658L14.827 16.68L16.598 10.542C16.6273 10.432 16.6823 10.3477 16.763 10.289C16.851 10.2303 16.9537 10.201 17.071 10.201C17.181 10.201 17.28 10.2303 17.368 10.289C17.456 10.3477 17.5147 10.432 17.544 10.542L19.073 16.053L18.919 16.724L18.985 16.746L20.404 10.795C20.448 10.6117 20.5397 10.4687 20.679 10.366C20.8257 10.256 21.0017 10.201 21.207 10.201C21.3757 10.201 21.5223 10.234 21.647 10.3L19.832 17.362C19.7733 17.5967 19.656 17.78 19.48 17.912C19.3113 18.0367 19.095 18.099 18.831 18.099L16.95 11.444L16.884 11.466L17.027 11.983L15.3 18.099ZM24.8035 13.248C24.3928 13.248 24.0518 13.3727 23.7805 13.622C23.5092 13.864 23.3735 14.161 23.3735 14.513V17.395C23.3735 17.637 23.2928 17.8167 23.1315 17.934C22.9775 18.044 22.7392 18.099 22.4165 18.099V13.215C22.4165 12.6723 22.7245 12.401 23.3405 12.401V13.072C23.2232 13.1967 23.1425 13.3067 23.0985 13.402L23.1425 13.446C23.6118 12.7493 24.1985 12.401 24.9025 12.401C25.1665 12.401 25.3682 12.467 25.5075 12.599C25.6468 12.7237 25.7165 12.8777 25.7165 13.061C25.7165 13.193 25.6835 13.3103 25.6175 13.413C25.4122 13.303 25.1408 13.248 24.8035 13.248ZM27.3212 11.576C27.1159 11.576 26.9435 11.51 26.8042 11.378C26.6649 11.246 26.5952 11.081 26.5952 10.883C26.5952 10.685 26.6649 10.5237 26.8042 10.399C26.9435 10.267 27.1159 10.201 27.3212 10.201C27.5192 10.201 27.6879 10.267 27.8272 10.399C27.9665 10.5237 28.0362 10.685 28.0362 10.883C28.0362 11.081 27.9665 11.246 27.8272 11.378C27.6879 11.51 27.5192 11.576 27.3212 11.576ZM26.8372 13.105C26.8372 12.863 26.9142 12.687 27.0682 12.577C27.2295 12.4597 27.4715 12.401 27.7942 12.401V17.395C27.7942 17.637 27.7135 17.8167 27.5522 17.934C27.3982 18.044 27.1599 18.099 26.8372 18.099V13.105ZM31.7705 18.099C31.2499 18.099 30.8612 17.9523 30.6045 17.659C30.3479 17.3583 30.2195 16.966 30.2195 16.482V13.27H29.1965C29.1965 13.0207 29.2515 12.83 29.3615 12.698C29.4715 12.566 29.6219 12.5 29.8125 12.5H30.2305V11.455C30.2305 11.213 30.3075 11.037 30.4615 10.927C30.6229 10.8097 30.8612 10.751 31.1765 10.751V12.5H32.6395C32.6395 13.0133 32.4085 13.27 31.9465 13.27H31.1875V16.449C31.1875 16.7423 31.2389 16.9513 31.3415 17.076C31.4515 17.1933 31.6459 17.252 31.9245 17.252C32.1812 17.252 32.4232 17.186 32.6505 17.054C32.7459 17.1493 32.7935 17.2777 32.7935 17.439C32.7935 17.615 32.7019 17.769 32.5185 17.901C32.3352 18.033 32.0859 18.099 31.7705 18.099ZM35.8633 18.099C35.3426 18.099 34.954 17.9523 34.6973 17.659C34.4406 17.3583 34.3123 16.966 34.3123 16.482V13.27H33.2893C33.2893 13.0207 33.3443 12.83 33.4543 12.698C33.5643 12.566 33.7146 12.5 33.9053 12.5H34.3233V11.455C34.3233 11.213 34.4003 11.037 34.5543 10.927C34.7156 10.8097 34.954 10.751 35.2693 10.751V12.5H36.7323C36.7323 13.0133 36.5013 13.27 36.0393 13.27H35.2803V16.449C35.2803 16.7423 35.3316 16.9513 35.4343 17.076C35.5443 17.1933 35.7386 17.252 36.0173 17.252C36.274 17.252 36.516 17.186 36.7433 17.054C36.8386 17.1493 36.8863 17.2777 36.8863 17.439C36.8863 17.615 36.7946 17.769 36.6113 17.901C36.428 18.033 36.1786 18.099 35.8633 18.099ZM40.2574 18.099C39.81 18.099 39.4104 18.0147 39.0584 17.846C38.7064 17.67 38.4314 17.4317 38.2334 17.131C38.0354 16.823 37.9364 16.4783 37.9364 16.097V14.469C37.9364 14.0803 38.039 13.7283 38.2444 13.413C38.457 13.0977 38.7394 12.852 39.0914 12.676C39.4507 12.4927 39.8394 12.401 40.2574 12.401C40.6754 12.401 41.0567 12.489 41.4014 12.665C41.7534 12.841 42.0284 13.083 42.2264 13.391C42.4317 13.699 42.5344 14.0473 42.5344 14.436V15.14C42.5344 15.2573 42.4904 15.3563 42.4024 15.437C42.3144 15.5177 42.208 15.558 42.0834 15.558H38.8714V16.053C38.8714 16.427 38.9887 16.7277 39.2234 16.955C39.4654 17.1823 39.81 17.296 40.2574 17.296C40.7047 17.296 41.0457 17.197 41.2804 16.999C41.515 16.801 41.6324 16.5333 41.6324 16.196C41.8524 16.1813 42.0357 16.2253 42.1824 16.328C42.3364 16.4233 42.4134 16.5663 42.4134 16.757C42.4134 16.9917 42.3107 17.2117 42.1054 17.417C41.9074 17.6223 41.6434 17.7873 41.3134 17.912C40.9834 18.0367 40.6314 18.099 40.2574 18.099ZM41.6434 14.81V14.436C41.6434 14.0693 41.515 13.7723 41.2584 13.545C41.009 13.3103 40.6754 13.193 40.2574 13.193C39.8394 13.193 39.502 13.3103 39.2454 13.545C38.996 13.7723 38.8714 14.0693 38.8714 14.436V14.81H41.6434ZM43.8042 13.215C43.8042 12.6723 44.1122 12.401 44.7282 12.401V13.105C44.6622 13.171 44.5852 13.27 44.4972 13.402L44.5412 13.446C44.7612 13.138 45.0472 12.8887 45.3992 12.698C45.7512 12.5 46.1325 12.401 46.5432 12.401C47.1372 12.401 47.6065 12.577 47.9512 12.929C48.2958 13.281 48.4682 13.7357 48.4682 14.293V17.395C48.4682 17.637 48.3875 17.8167 48.2262 17.934C48.0722 18.044 47.8338 18.099 47.5112 18.099V14.392C47.5112 14.04 47.4122 13.7613 47.2142 13.556C47.0162 13.3507 46.7155 13.248 46.3122 13.248C46.0408 13.248 45.7842 13.3067 45.5422 13.424C45.3075 13.534 45.1168 13.688 44.9702 13.886C44.8308 14.0767 44.7612 14.2857 44.7612 14.513V17.395C44.7612 17.637 44.6805 17.8167 44.5192 17.934C44.3652 18.044 44.1268 18.099 43.8042 18.099V13.215ZM53.4569 11.576C53.2516 11.576 53.0793 11.51 52.9399 11.378C52.8006 11.246 52.7309 11.081 52.7309 10.883C52.7309 10.685 52.8006 10.5237 52.9399 10.399C53.0793 10.267 53.2516 10.201 53.4569 10.201C53.6549 10.201 53.8236 10.267 53.9629 10.399C54.1023 10.5237 54.1719 10.685 54.1719 10.883C54.1719 11.081 54.1023 11.246 53.9629 11.378C53.8236 11.51 53.6549 11.576 53.4569 11.576ZM52.9729 13.105C52.9729 12.863 53.0499 12.687 53.2039 12.577C53.3653 12.4597 53.6073 12.401 53.9299 12.401V17.395C53.9299 17.637 53.8493 17.8167 53.6879 17.934C53.5339 18.044 53.2956 18.099 52.9729 18.099V13.105ZM55.7173 13.215C55.7173 12.6723 56.0253 12.401 56.6413 12.401V13.105C56.5753 13.171 56.4983 13.27 56.4103 13.402L56.4543 13.446C56.6743 13.138 56.9603 12.8887 57.3123 12.698C57.6643 12.5 58.0456 12.401 58.4563 12.401C59.0503 12.401 59.5196 12.577 59.8643 12.929C60.2089 13.281 60.3813 13.7357 60.3813 14.293V17.395C60.3813 17.637 60.3006 17.8167 60.1393 17.934C59.9853 18.044 59.7469 18.099 59.4243 18.099V14.392C59.4243 14.04 59.3253 13.7613 59.1273 13.556C58.9293 13.3507 58.6286 13.248 58.2253 13.248C57.9539 13.248 57.6973 13.3067 57.4553 13.424C57.2206 13.534 57.0299 13.688 56.8833 13.886C56.7439 14.0767 56.6743 14.2857 56.6743 14.513V17.395C56.6743 17.637 56.5936 17.8167 56.4323 17.934C56.2783 18.044 56.0399 18.099 55.7173 18.099V13.215Z" fill="white"/>
<rect x="80" width="54" height="28" fill="#D2CB18"/>
<path d="M91.7 10.44C91.7 10.3133 91.7433 10.21 91.83 10.13C91.9233 10.0433 92.04 10 92.18 10H95.1C95.54 10 95.93 10.0933 96.27 10.28C96.61 10.46 96.8733 10.7167 97.06 11.05C97.2467 11.3767 97.34 11.7533 97.34 12.18C97.34 12.62 97.2467 13.0067 97.06 13.34C96.88 13.6733 96.62 13.93 96.28 14.11C95.94 14.29 95.5467 14.38 95.1 14.38H92.64V16.31C92.64 16.5633 92.56 16.7567 92.4 16.89C92.24 17.0233 92.0067 17.09 91.7 17.09V10.44ZM95.1 13.55C95.5 13.55 95.8167 13.43 96.05 13.19C96.2833 12.9433 96.4 12.6067 96.4 12.18C96.4 11.7667 96.28 11.44 96.04 11.2C95.8067 10.9533 95.4933 10.83 95.1 10.83H92.64V13.55H95.1ZM98.5279 19.08C98.1146 19.08 97.8979 18.84 97.8779 18.36C98.0779 18.3867 98.2212 18.4 98.3079 18.4C98.6012 18.4 98.8346 18.3133 99.0079 18.14C99.1879 17.9667 99.3712 17.6667 99.5579 17.24L99.7579 16.79L97.7879 11.98C97.8346 11.96 97.8946 11.9433 97.9679 11.93C98.0479 11.9167 98.1146 11.91 98.1679 11.91C98.3079 11.9167 98.4346 11.9567 98.5479 12.03C98.6612 12.0967 98.7412 12.1867 98.7879 12.3L100.128 15.72L99.9879 16.12L100.048 16.15L101.568 12.3C101.615 12.18 101.691 12.0867 101.798 12.02C101.911 11.9467 102.038 11.91 102.178 11.91C102.238 11.91 102.305 11.9167 102.378 11.93C102.458 11.9433 102.518 11.96 102.558 11.98L100.308 17.49C100.088 18.0233 99.8412 18.42 99.5679 18.68C99.2946 18.9467 98.9479 19.08 98.5279 19.08ZM105.253 17.09C104.779 17.09 104.426 16.9567 104.193 16.69C103.959 16.4167 103.843 16.06 103.843 15.62V12.7H102.913C102.913 12.4733 102.963 12.3 103.063 12.18C103.163 12.06 103.299 12 103.473 12H103.853V11.05C103.853 10.83 103.923 10.67 104.063 10.57C104.209 10.4633 104.426 10.41 104.713 10.41V12H106.043C106.043 12.4667 105.833 12.7 105.413 12.7H104.723V15.59C104.723 15.8567 104.769 16.0467 104.863 16.16C104.963 16.2667 105.139 16.32 105.393 16.32C105.626 16.32 105.846 16.26 106.053 16.14C106.139 16.2267 106.183 16.3433 106.183 16.49C106.183 16.65 106.099 16.79 105.933 16.91C105.766 17.03 105.539 17.09 105.253 17.09ZM107.237 10.65C107.237 10.41 107.31 10.2267 107.457 10.1C107.604 9.97333 107.82 9.91 108.107 9.91V12.54C108.014 12.6467 107.94 12.74 107.887 12.82L107.927 12.86C108.134 12.58 108.394 12.3533 108.707 12.18C109.02 12 109.36 11.91 109.727 11.91C110.267 11.91 110.694 12.07 111.007 12.39C111.32 12.71 111.477 13.1233 111.477 13.63V16.45C111.477 16.67 111.404 16.8333 111.257 16.94C111.117 17.04 110.9 17.09 110.607 17.09V13.72C110.607 13.4 110.517 13.1467 110.337 12.96C110.157 12.7733 109.884 12.68 109.517 12.68C109.27 12.68 109.037 12.7333 108.817 12.84C108.604 12.94 108.43 13.08 108.297 13.26C108.17 13.4333 108.107 13.6233 108.107 13.83V16.45C108.107 16.67 108.034 16.8333 107.887 16.94C107.747 17.04 107.53 17.09 107.237 17.09V10.65ZM114.674 17.09C114.268 17.09 113.898 17.0133 113.564 16.86C113.238 16.7067 112.981 16.5 112.794 16.24C112.614 15.9733 112.524 15.6767 112.524 15.35V13.71C112.524 13.3767 112.614 13.0733 112.794 12.8C112.981 12.5267 113.238 12.31 113.564 12.15C113.891 11.99 114.261 11.91 114.674 11.91C115.088 11.91 115.458 11.99 115.784 12.15C116.118 12.31 116.374 12.5267 116.554 12.8C116.741 13.0733 116.834 13.3767 116.834 13.71V15.35C116.834 15.6767 116.741 15.9733 116.554 16.24C116.368 16.5 116.111 16.7067 115.784 16.86C115.458 17.0133 115.088 17.09 114.674 17.09ZM114.674 16.34C115.074 16.34 115.391 16.2467 115.624 16.06C115.864 15.8667 115.984 15.6167 115.984 15.31V13.74C115.984 13.42 115.864 13.16 115.624 12.96C115.391 12.76 115.074 12.66 114.674 12.66C114.281 12.66 113.964 12.76 113.724 12.96C113.484 13.16 113.364 13.42 113.364 13.74V15.31C113.364 15.6167 113.481 15.8667 113.714 16.06C113.954 16.2467 114.274 16.34 114.674 16.34ZM117.989 12.65C117.989 12.1567 118.269 11.91 118.829 11.91V12.55C118.769 12.61 118.699 12.7 118.619 12.82L118.659 12.86C118.859 12.58 119.119 12.3533 119.439 12.18C119.759 12 120.106 11.91 120.479 11.91C121.019 11.91 121.446 12.07 121.759 12.39C122.072 12.71 122.229 13.1233 122.229 13.63V16.45C122.229 16.67 122.156 16.8333 122.009 16.94C121.869 17.04 121.652 17.09 121.359 17.09V13.72C121.359 13.4 121.269 13.1467 121.089 12.96C120.909 12.7733 120.636 12.68 120.269 12.68C120.022 12.68 119.789 12.7333 119.569 12.84C119.356 12.94 119.182 13.08 119.049 13.26C118.922 13.4333 118.859 13.6233 118.859 13.83V16.45C118.859 16.67 118.786 16.8333 118.639 16.94C118.499 17.04 118.282 17.09 117.989 17.09V12.65Z" fill="white"/>
</g>
<defs>
<clipPath id="clip0_10_7">
<rect width="134" height="28" fill="white"/>
</clipPath>
</defs>
</svg>
